<?xml version="1.0" standalone="no"?><!DOCTYPE svg PUBLIC "-//W3C//DTD SVG 1.1//EN" "http://www.w3.org/Graphics/SVG/1.1/DTD/svg11.dtd"><svg t="1660486430889" class="icon" viewBox="0 0 1024 1024" version="1.1" xmlns="http://www.w3.org/2000/svg" p-id="34461" xmlns:xlink="http://www.w3.org/1999/xlink" width="200" height="200"><defs><style type="text/css">@font-face { font-family: feedback-iconfont; src: url("//at.alicdn.com/t/font_1031158_u69w8yhxdu.woff2?t=1630033759944") format("woff2"), url("//at.alicdn.com/t/font_1031158_u69w8yhxdu.woff?t=1630033759944") format("woff"), url("//at.alicdn.com/t/font_1031158_u69w8yhxdu.ttf?t=1630033759944") format("truetype"); }
</style></defs><path d="M145.6 0C100.8 0 64 36.8 64 81.6v860.8C64 987.2 100.8 1024 145.6 1024h732.8c43.2 0 80-36.8 80-81.6V324.8L656 0H145.6z" fill="#FFC35E" p-id="34462"></path><path d="M958.4 326.4v16H753.6s-100.8-20.8-97.6-108.8c0 0 3.2 92.8 96 92.8h206.4z" fill="#FFB446" p-id="34463"></path><path d="M656 0v233.6c0 25.6 17.6 92.8 97.6 92.8h204.8L656 0z" fill="#FFFFFF" p-id="34464"></path><path d="M385.6 862.4c-4.8 0-9.6-3.2-11.2-8l-14.4-35.2h-96l-14.4 35.2c-1.6 4.8-6.4 8-11.2 8-6.4 0-12.8-6.4-12.8-12.8 0-1.6 0-3.2 1.6-4.8l65.6-164.8c3.2-8 11.2-12.8 19.2-12.8 9.6 0 16 4.8 19.2 12.8l67.2 164.8v4.8c0 6.4-4.8 12.8-12.8 12.8z m-73.6-168L272 796.8h81.6l-41.6-102.4zM448 862.4c-6.4 0-11.2-4.8-11.2-11.2V678.4c0-6.4 4.8-11.2 12.8-11.2 6.4 0 11.2 4.8 11.2 11.2v172.8c0 6.4-4.8 11.2-12.8 11.2z" fill="#FFFFFF" p-id="34465"></path></svg>