<?xml version="1.0" standalone="no"?><!DOCTYPE svg PUBLIC "-//W3C//DTD SVG 1.1//EN" "http://www.w3.org/Graphics/SVG/1.1/DTD/svg11.dtd"><svg t="1660486364580" class="icon" viewBox="0 0 1024 1024" version="1.1" xmlns="http://www.w3.org/2000/svg" p-id="31883" xmlns:xlink="http://www.w3.org/1999/xlink" width="200" height="200"><defs><style type="text/css">@font-face { font-family: feedback-iconfont; src: url("//at.alicdn.com/t/font_1031158_u69w8yhxdu.woff2?t=1630033759944") format("woff2"), url("//at.alicdn.com/t/font_1031158_u69w8yhxdu.woff?t=1630033759944") format("woff"), url("//at.alicdn.com/t/font_1031158_u69w8yhxdu.ttf?t=1630033759944") format("truetype"); }
</style></defs><path d="M910.9 958.5H278.3c-29.9 0-54.2-24.3-54.2-54.2v-787c0-29.9 24.3-54.2 54.2-54.2h491.3c10 0 18.1 8.1 18.1 18.1v135.6H947c10 0 18.1 8.1 18.1 18.1v669.4c0 29.8-24.3 54.2-54.2 54.2zM278.3 99.3c-10 0-18.1 8.1-18.1 18.1v786.9c0 10 8.1 18.1 18.1 18.1h632.6c10 0 18.1-8.1 18.1-18.1V252.9H769.5c-10 0-18.1-8.1-18.1-18.1V99.3H278.3z" fill="#FBA16F" p-id="31884"></path><path d="M947.4 253H769.9c-10 0-18.1-8.1-18.1-18.1V81.2c0-7.1 4.1-13.5 10.6-16.4 6.4-2.9 14-1.9 19.3 2.8L801.9 85c0.2 0.1 0.3 0.3 0.5 0.4l156.9 135.8c5.7 4.9 7.7 12.9 5.1 20-2.7 7.1-9.4 11.8-17 11.8zM788 216.8h111l-111-96.1v96.1zM664.5 781.5H79.4c-11.4 0-20.7-9.3-20.7-20.7V490.6c0-11.4 9.3-20.7 20.7-20.7h585.2c11.4 0 20.7 9.3 20.7 20.7v270.2c-0.1 11.4-9.4 20.7-20.8 20.7z" fill="#FBA16F" p-id="31885"></path><path d="M279.1 676.4h-67.4l-14.6 53.4h-42.2l66.6-207.9h48.9l66.9 207.9h-43.6l-14.6-53.4z m-9-32.4l-6.2-22.8c-6.5-21.6-12.1-45.5-18.3-68h-1.1c-5.3 22.8-11.5 46.4-17.7 68l-6.2 22.8h49.5zM329.4 521.8H373L400.5 623c6.5 23 10.7 43.8 17.4 67.2h1.4c6.5-23.3 11.2-44.1 17.7-67.2l27-101.2h42.2l-63.8 207.9h-49.5l-63.5-207.9zM530 521.8h41.6v207.9H530V521.8z" fill="#FFFFFF" p-id="31886"></path></svg>