<?xml version="1.0" standalone="no"?><!DOCTYPE svg PUBLIC "-//W3C//DTD SVG 1.1//EN" "http://www.w3.org/Graphics/SVG/1.1/DTD/svg11.dtd"><svg t="1660384687643" class="icon" viewBox="0 0 1024 1024" version="1.1" xmlns="http://www.w3.org/2000/svg" p-id="14212" xmlns:xlink="http://www.w3.org/1999/xlink" width="200" height="200"><defs><style type="text/css">@font-face { font-family: feedback-iconfont; src: url("//at.alicdn.com/t/font_1031158_u69w8yhxdu.woff2?t=1630033759944") format("woff2"), url("//at.alicdn.com/t/font_1031158_u69w8yhxdu.woff?t=1630033759944") format("woff"), url("//at.alicdn.com/t/font_1031158_u69w8yhxdu.ttf?t=1630033759944") format("truetype"); }
</style></defs><path d="M192 0h448.1536L960 320v576c0 70.6944-57.3056 128-128 128H192C121.3056 1024 64 966.6944 64 896V128C64 57.3056 121.3056 0 192 0z" fill="#387EFA" p-id="14213"></path><path d="M311.5904 701.0816c25.088 0 45.76-7.8464 62.016-23.5392 16.256-15.68 24.3712-35.9296 24.3712-60.736v-33.472c0-24.704-8.128-44.9664-24.3712-60.7488-16.256-15.7824-36.928-23.68-62.016-23.68H240v202.176h71.5904z m0-31.104h-30.4384V530.176h30.4384c13.5296 0 24.4352 4.9408 32.6912 14.848 8.2688 9.9072 12.416 22.592 12.416 38.0544v33.7408c0 15.552-4.1472 28.288-12.416 38.2464-8.256 9.9584-19.1616 14.9248-32.6912 14.9248zM511.1424 704c25.472 0 46.1312-8.0768 62.016-24.2304 15.872-16.1536 23.808-36.6848 23.808-61.568v-36.3904c0-24.7168-7.9744-45.1968-23.9488-61.44-15.9744-16.256-36.6976-24.3712-62.1568-24.3712-25.2672 0-45.7728 8.128-61.5168 24.3712-15.7312 16.2432-23.6032 36.7232-23.6032 61.44v36.3776c0 24.8064 7.8976 45.312 23.68 61.5168C465.2032 695.8976 485.7728 704 511.1424 704z m0-31.5136c-13.9904 0-24.896-5.056-32.6912-15.1424-7.808-10.0864-11.6992-23.1424-11.6992-39.1552v-36.6592c0-15.744 3.8784-28.6464 11.6352-38.7328 7.744-10.0992 18.5728-15.1424 32.4736-15.1424 14.0928 0 25.1392 5.0432 33.1264 15.1424 7.9872 10.0864 11.9808 23.0016 11.9808 38.7328v36.6592c0 16.0128-3.9552 29.056-11.84 39.168-7.8976 10.0736-18.8928 15.1296-32.9856 15.1296zM706.8928 704c24.1536 0 43.0848-6.1056 56.7936-18.3296 13.7216-12.224 20.3904-29.1072 20.0192-50.688l-0.2816-0.8192h-39.8848c0 13.1328-3.0336 22.8864-9.088 29.2224-6.0672 6.336-15.2448 9.5104-27.5584 9.5104-12.9664 0-23.0784-4.9024-30.3616-14.72-7.296-9.8048-10.9312-22.4896-10.9312-38.0416V579.712c0-15.4496 3.456-28.0704 10.368-37.8368 6.912-9.7664 16.512-14.6432 28.8128-14.6432 13.248 0 23.04 3.1616 29.3888 9.5104 6.336 6.336 9.5104 16 9.5104 28.9536h40.0256l0.2816-0.832c0.384-21.8496-6.4896-38.784-20.5824-50.816-14.08-12.032-33.6256-18.0608-58.624-18.0608-23.9616 0-43.3152 7.8464-58.0608 23.5392-14.7456 15.6928-22.1312 35.84-22.1312 60.4672v40.128c0 24.704 7.5648 44.8768 22.6944 60.4672C662.4128 696.2048 682.2784 704 706.8928 704z" fill="#FFFFFF" opacity=".9" p-id="14214"></path><path d="M640 0l320 320H768c-70.6944 0-128-57.3056-128-128V0z" fill="#97CEF9" p-id="14215"></path></svg>