<?xml version="1.0" standalone="no"?><!DOCTYPE svg PUBLIC "-//W3C//DTD SVG 1.1//EN" "http://www.w3.org/Graphics/SVG/1.1/DTD/svg11.dtd"><svg t="1660399981550" class="icon" viewBox="0 0 1024 1024" version="1.1" xmlns="http://www.w3.org/2000/svg" p-id="3240" xmlns:xlink="http://www.w3.org/1999/xlink" width="300" height="300"><defs><style type="text/css">@font-face { font-family: feedback-iconfont; src: url("//at.alicdn.com/t/font_1031158_u69w8yhxdu.woff2?t=1630033759944") format("woff2"), url("//at.alicdn.com/t/font_1031158_u69w8yhxdu.woff?t=1630033759944") format("woff"), url("//at.alicdn.com/t/font_1031158_u69w8yhxdu.ttf?t=1630033759944") format("truetype"); }
</style></defs><path d="M908.611316 239.292735l2.721684 711.518222c0 16.437893-13.204209 29.642101-29.642101 29.642101H193.818989c-16.437893 0-29.642101-13.204209-29.642101-29.642101V73.027494c0-16.451366 13.204209-29.642101 29.642101-29.642102l522.495931-1.104842L675.1124 0.013608H195.274147A69.48378 69.48378 0 0 0 125.709525 69.578231v884.843673a69.48378 69.48378 0 0 0 69.564622 69.564622H880.235741a69.497254 69.497254 0 0 0 69.59157-69.564622V281.57315l-41.215995-42.293889z" fill="#D6473B" fill-opacity=".4" p-id="3241"></path><path d="M675.125873 206.201371a75.506516 75.506516 0 0 0 75.533464 75.546937h199.343132L675.125873 0.000135v206.201236z" fill="#EF6A63" p-id="3242"></path><path d="M532.34526 481.09144H109.972263A96.498514 96.498514 0 0 1 13.47375 384.579453V320.79504A96.498514 96.498514 0 0 1 109.972263 224.269579H532.34526a96.498514 96.498514 0 0 1 96.498514 96.525461v63.784413a96.498514 96.498514 0 0 1-96.498514 96.511987" fill="#FA4E4E" p-id="3243"></path><path d="M73.148689 267.964731h100.015145v35.570522H110.551632v26.475786h58.071571v33.953679h-58.071571v32.875786h64.417676v37.712837H73.162163zM232.394142 338.997985h9.14863c7.194946 0 12.234104-1.724631 15.157893-5.187368 2.910315-3.449263 4.365473-7.855157 4.365473-13.231156 0-5.214315-1.266526-9.674104-3.772631-13.298525-2.56-3.637894-7.302736-5.456841-14.26863-5.456841h-10.630735v37.17389z m-37.483784-71.033254h62.032833c13.514103 0 23.632839 4.446315 30.369681 13.298525 6.709894 8.879157 10.078314 21.47705 10.078314 37.8341 0 16.828629-3.664842 29.96547-10.994525 39.450942-7.329683 9.458525-18.51284 14.187788-33.576416 14.187788h-20.426103v61.817255h-37.483784V267.964731zM395.506542 267.964731h37.241258v99.247145c0 9.835788-1.104842 19.146103-3.328 27.890523a66.77557 66.77557 0 0 1-10.469051 22.945681c-4.75621 6.534736-9.741472 11.129262-14.955787 13.783577-7.235367 3.705263-15.939366 5.578105-26.111997 5.578104-5.874526 0-12.301472-0.579368-19.240419-1.711157-6.938946-1.145263-12.746104-3.381894-17.421471-6.763789-4.661894-3.368421-8.933051-8.151578-12.799998-14.362945a60.362097 60.362097 0 0 1-7.949473-19.199998c-2.317473-10.590314-3.462736-19.981471-3.462736-28.159996v-99.247145h37.227784v101.618513c0 9.081262 1.832421 16.181893 5.483789 21.288418 3.637894 5.119999 8.717473 7.653052 15.18484 7.653052 6.44042 0 11.466104-2.519579 15.117472-7.545262 3.664842-5.039157 5.483789-12.153262 5.483789-21.396208v-101.618513zM495.198318 398.76724h19.038313c6.413473 0 10.954104-1.576421 13.581472-4.729262 2.627368-3.139368 3.947789-7.356631 3.947789-12.665262 0-4.917894-1.306947-8.879157-3.907368-11.883788-2.613894-2.977684-7.167999-4.486736-13.716208-4.486736h-18.943998v33.765048z m0-65.455149h16.222314c5.820631 0 9.876209-1.387789 12.166735-4.149894 2.263579-2.762105 3.408842-6.763789 3.408842-11.991578 0-4.850526-1.145263-8.623157-3.408842-11.358314-2.290526-2.721684-6.251789-4.095999-11.910735-4.095999h-16.478314v31.595785z m-37.658942-65.34736h69.861043c11.654735 0 20.574313 3.98821 26.826102 11.937683 6.224841 7.962946 9.337262 17.798735 9.337262 29.547785 0 9.849262-2.209684 18.283787-6.669473 25.330523-2.96421 4.715789-7.302736 8.407578-13.015577 11.142736 8.677051 2.869894 15.063577 7.828209 19.159576 14.82105 4.082526 7.019789 6.130526 15.818103 6.130526 26.408418 0 8.650104-1.455158 16.424419-4.352 23.309471-2.923789 6.898525-6.911999 12.355367-11.951156 16.370524-3.139368 2.492631-7.868631 4.311578-14.16084 5.443367-8.421052 1.522526-13.985682 2.290526-16.734314 2.290526h-64.431149V267.964731z" fill="#FFFFFF" p-id="3244"></path><path d="M532.156629 898.290543a23.282523 23.282523 0 0 1-22.258523-16.505261L430.080011 618.617316a23.255576 23.255576 0 0 1 19.17305-29.817259l250.435335-33.58989c10.859788-1.616842 21.47705 4.985263 25.087997 15.494735l36.00168 104.46146a23.26905 23.26905 0 0 1-14.740209 29.682522l-133.834088 43.897257a23.215155 23.215155 0 0 1-29.359154-14.847998 23.242102 23.242102 0 0 1 14.861472-29.359154l111.373459-36.5541-22.096839-64.121255-204.409236 27.418944 65.414728 215.646287 203.775973-52.385677a23.242102 23.242102 0 0 1 28.32168 16.774735 23.26905 23.26905 0 0 1-16.734313 28.335154l-225.374286 57.909887a23.444207 23.444207 0 0 1-5.820631 0.727579" fill="#EF6A63" p-id="3245"></path></svg>