<?xml version="1.0" standalone="no"?><!DOCTYPE svg PUBLIC "-//W3C//DTD SVG 1.1//EN" "http://www.w3.org/Graphics/SVG/1.1/DTD/svg11.dtd"><svg t="1660384614492" class="icon" viewBox="0 0 1024 1024" version="1.1" xmlns="http://www.w3.org/2000/svg" p-id="8931" xmlns:xlink="http://www.w3.org/1999/xlink" width="200" height="200"><defs><style type="text/css">@font-face { font-family: feedback-iconfont; src: url("//at.alicdn.com/t/font_1031158_u69w8yhxdu.woff2?t=1630033759944") format("woff2"), url("//at.alicdn.com/t/font_1031158_u69w8yhxdu.woff?t=1630033759944") format("woff"), url("//at.alicdn.com/t/font_1031158_u69w8yhxdu.ttf?t=1630033759944") format("truetype"); }
</style></defs><path d="M192 0h448.1536L960 320v576c0 70.6944-57.3056 128-128 128H192C121.3056 1024 64 966.6944 64 896V128C64 57.3056 121.3056 0 192 0z" fill="#00BD76" p-id="8932"></path><path d="M388.5312 631.2704h-80.9984v54.8352h95.0656v33.8944H265.344V515.2512h136.96v34.176h-94.7712v48.7936h80.9984v33.0496z m112.0768-45.4272l38.4-70.592h48.512l-59.6352 101.5296 61.184 103.2192h-49.088l-39.3728-71.7184-39.3728 71.7184H412.16l61.1712-103.2192-59.6224-101.5296h48.512l38.4 70.592z m266.9056 65.9584a83.7632 83.7632 0 0 1-7.04 28.672 66.688 66.688 0 0 1-16.3072 22.4384c-6.9376 6.2336-15.3472 11.1104-25.2416 14.6304-9.8816 3.5072-21.1584 5.2736-33.8176 5.2736-13.12 0-24.9088-2.2784-35.3664-6.8224a72.2944 72.2944 0 0 1-26.5728-19.6224c-7.2704-8.5248-12.8512-18.8672-16.7424-31.0016-3.8912-12.1472-5.8368-25.7664-5.8368-40.8576v-13.4912c0-15.104 2.0224-28.736 6.0544-40.9216 4.032-12.1984 9.728-22.5536 17.088-31.0784a74.1504 74.1504 0 0 1 26.7904-19.6864c10.496-4.608 22.208-6.8992 35.1488-6.8992 12.7488 0 24.0256 1.8048 33.8176 5.4144 9.8048 3.6096 18.1248 8.6272 24.96 15.0528a68.3648 68.3648 0 0 1 16.0384 22.912c3.84 8.8704 6.272 18.496 7.3088 28.9024h-42.1888a63.8336 63.8336 0 0 0-3.1616-16.1664 31.7312 31.7312 0 0 0-7.104-11.8144 29.3632 29.3632 0 0 0-11.9552-7.2448c-4.864-1.6384-10.7776-2.4576-17.7152-2.4576-14.2464 0-24.8704 5.1712-31.8464 15.5392-6.9888 10.368-10.4832 26.4064-10.4832 48.1664v13.7728c0 10.5984 0.768 19.8784 2.3296 27.8528 1.536 7.9616 3.968 14.6176 7.296 19.968 3.328 5.3376 7.6544 9.344 12.9536 12.0192 5.2864 2.6752 11.6864 4.0064 19.2 4.0064 6.656 0 12.3904-0.7552 17.216-2.2528 4.8256-1.4976 8.8576-3.776 12.096-6.8224a30.72 30.72 0 0 0 7.5264-11.456c1.7792-4.5952 2.9056-9.9328 3.3664-16.0256h42.1888z" fill="#FFFFFF" opacity=".9" p-id="8933"></path><path d="M640 0l320 320H768c-70.6944 0-128-57.3056-128-128V0z" fill="#19EA9C" p-id="8934"></path></svg>