<?xml version="1.0" standalone="no"?><!DOCTYPE svg PUBLIC "-//W3C//DTD SVG 1.1//EN" "http://www.w3.org/Graphics/SVG/1.1/DTD/svg11.dtd"><svg t="1660316505106" class="icon" viewBox="0 0 1024 1024" version="1.1" xmlns="http://www.w3.org/2000/svg" p-id="10098" xmlns:xlink="http://www.w3.org/1999/xlink" width="200" height="200"><defs><style type="text/css">@font-face { font-family: feedback-iconfont; src: url("//at.alicdn.com/t/font_1031158_u69w8yhxdu.woff2?t=1630033759944") format("woff2"), url("//at.alicdn.com/t/font_1031158_u69w8yhxdu.woff?t=1630033759944") format("woff"), url("//at.alicdn.com/t/font_1031158_u69w8yhxdu.ttf?t=1630033759944") format("truetype"); }
</style></defs><path d="M192 0h448.1536L960 320v576c0 70.6944-57.3056 128-128 128H192C121.3056 1024 64 966.6944 64 896V128C64 57.3056 121.3056 0 192 0z" fill="#FF8E3E" p-id="10099"></path><path d="M640 0l320 320H768c-70.6944 0-128-57.3056-128-128V0z" fill="#FFB078" p-id="10100"></path><path d="M349.44 704c22.1824 0 40.3328-3.328 54.4512-9.9968 14.1184-6.656 25.0624-14.72 32.832-24.1536V581.12h-91.4304v34.4576h39.5776v39.9872c-3.1744 2.56-7.488 4.608-12.9664 6.144-5.4656 1.536-12.9664 2.304-22.4768 2.304-13.184 0-23.4496-4.736-30.7584-14.208-7.3088-9.4976-10.9696-22.016-10.9696-37.6192V565.12c0-15.2832 3.6864-27.6864 11.0464-37.2224 7.36-9.536 17.0752-14.3104 29.1456-14.3104 11.776 0 20.5568 2.6624 26.3936 8 5.824 5.3376 8.7424 13.4784 8.7424 24.448h48.64l0.2944-0.9216c0.512-22.144-6.5152-39.6032-21.0944-52.3648C396.3008 479.9872 374.7456 473.6 346.2016 473.6c-26.4832 0-48.1408 8.5632-64.96 25.6896C264.4096 516.4032 256 538.4576 256 565.4272v46.7456c0 27.1744 8.64 49.28 25.9328 66.304 17.28 17.024 39.7824 25.5232 67.4944 25.5232z m201.9072-3.2256V476.8256h-51.6992v223.9488h51.712z m119.232 0v-90.1376h81.7664v-39.9872H670.592v-53.824H768v-40H618.7264v223.9488h51.8528z" fill="#FFFFFF" fill-opacity=".9" p-id="10101"></path></svg>