<svg t="1651253559168" class="icon" viewBox="0 0 1024 1024" version="1.1" xmlns="http://www.w3.org/2000/svg" p-id="2155" width="200" height="200"><path d="M656 240V16H144v992h736V240z" fill="#FEEB9E" p-id="2156"></path><path d="M656 16v224h224z" fill="#E6C45F" p-id="2157"></path><path d="M368 576a48 48 0 1 0 0 96 48 48 0 0 0 0-96z m240-48a48 48 0 1 0 0-96 48 48 0 0 0 0 96z m0 192a48 48 0 1 0 0 96 48 48 0 0 0 0-96z" fill="#F48284" p-id="2158"></path><path d="M895.904 239.824a15.536 15.536 0 0 0-4.464-10.48L666.656 4.56a15.376 15.376 0 0 0-10.336-4.432L656 0H160a32 32 0 0 0-32 32v960a32 32 0 0 0 32 32h704a32 32 0 0 0 32-32V240.432 240l-0.096-0.176zM672 54.096L841.904 224H672V54.096zM864 992H160V32h480v224h224v736zM544 480c0 7.264 1.472 14.128 3.696 20.64l-137.024 76A63.456 63.456 0 0 0 368 560a64 64 0 0 0 0 128 63.52 63.52 0 0 0 42.672-16.624l137.024 75.984A63.552 63.552 0 0 0 544 768a64 64 0 1 0 64-64c-16.464 0-31.344 6.4-42.672 16.624l-137.024-75.984c2.224-6.512 3.696-13.376 3.696-20.64s-1.472-14.128-3.696-20.64l137.024-75.984A63.488 63.488 0 0 0 608 544a64 64 0 1 0-64-64zM368 655.92a31.92 31.92 0 1 1 0-63.84 31.92 31.92 0 0 1 0 63.84zM608 736a32 32 0 1 1-0.016 64.016A32 32 0 0 1 608 736z m32-256a32 32 0 1 1-64.016-0.016A32 32 0 0 1 640 480z" fill="#2B3139" p-id="2159"></path></svg>