<?xml version="1.0" standalone="no"?><!DOCTYPE svg PUBLIC "-//W3C//DTD SVG 1.1//EN" "http://www.w3.org/Graphics/SVG/1.1/DTD/svg11.dtd"><svg t="1660486124426" class="icon" viewBox="0 0 1024 1024" version="1.1" xmlns="http://www.w3.org/2000/svg" p-id="27296" xmlns:xlink="http://www.w3.org/1999/xlink" width="200" height="200"><defs><style type="text/css">@font-face { font-family: feedback-iconfont; src: url("//at.alicdn.com/t/font_1031158_u69w8yhxdu.woff2?t=1630033759944") format("woff2"), url("//at.alicdn.com/t/font_1031158_u69w8yhxdu.woff?t=1630033759944") format("woff"), url("//at.alicdn.com/t/font_1031158_u69w8yhxdu.ttf?t=1630033759944") format("truetype"); }
</style></defs><path d="M748 183.5V0H96v1024h836V183.5z" fill="#8CBEBF" p-id="27297"></path><path d="M932 184H748V0" fill="#B8DDDD" p-id="27298"></path><path d="M491.2 510.5c0-12.3 10-22.3 22.3-22.3s22.3 10 22.3 22.3-10 22.3-22.3 22.3-22.3-10-22.3-22.3z m22.3-58c-32 0-57.9 25.9-57.9 57.9s25.9 57.9 57.9 57.9 57.9-25.9 57.9-57.9c0-31.9-25.9-57.9-57.9-57.9z m-209.5 58C304 626.2 397.8 720 513.5 720S723 626.2 723 510.5 629.2 301 513.5 301 304 394.8 304 510.5z m209.5-93.6c51.7 0 93.6 41.9 93.6 93.6s-41.9 93.6-93.6 93.6-93.6-41.9-93.6-93.6 41.9-93.6 93.6-93.6z" fill="#FFFFFF" p-id="27299"></path></svg>