<?xml version="1.0" standalone="no"?><!DOCTYPE svg PUBLIC "-//W3C//DTD SVG 1.1//EN" "http://www.w3.org/Graphics/SVG/1.1/DTD/svg11.dtd"><svg t="1660485951297" class="icon" viewBox="0 0 1024 1024" version="1.1" xmlns="http://www.w3.org/2000/svg" p-id="19984" xmlns:xlink="http://www.w3.org/1999/xlink" width="200" height="200"><defs><style type="text/css">@font-face { font-family: feedback-iconfont; src: url("//at.alicdn.com/t/font_1031158_u69w8yhxdu.woff2?t=1630033759944") format("woff2"), url("//at.alicdn.com/t/font_1031158_u69w8yhxdu.woff?t=1630033759944") format("woff"), url("//at.alicdn.com/t/font_1031158_u69w8yhxdu.ttf?t=1630033759944") format("truetype"); }
</style></defs><path d="M942.846169 216.067434l-192.255183-204.79913A38.143838 38.143838 0 0 0 722.943103 0.004352h-614.397388a40.191829 40.191829 0 0 0-38.911835 41.471824v941.052A40.191829 40.191829 0 0 0 108.545715 1024h806.90857a40.191829 40.191829 0 0 0 38.911835-41.471824V245.507309a42.751818 42.751818 0 0 0-11.519951-29.439875z m-554.237645 478.717965h-39.167833V512.002176h-1.535994l-78.335667 182.783223H235.777174L157.185508 512.002176v182.783223H116.73768v-255.998912h46.335803l89.087621 204.79913h1.279995l88.831622-204.79913h46.335803z m255.998912-32.511862a118.015498 118.015498 0 0 1-92.159608 37.63184A117.247502 117.247502 0 0 1 460.800218 661.76154a137.471416 137.471416 0 0 1-31.999864-94.719598A137.983414 137.983414 0 0 1 460.800218 472.066346a114.943511 114.943511 0 0 1 92.159608-38.399837 116.735504 116.735504 0 0 1 92.159608 38.143838 137.471416 137.471416 0 0 1 32.255863 95.231595 139.007409 139.007409 0 0 1-33.279858 95.231595z m187.391204 32.511862h-47.871797l-92.927605-255.998912h43.519815l72.703691 212.223098 72.447693-212.223098h42.23982z" fill="#f06e5d" p-id="19985" data-spm-anchor-id="a313x.7781069.0.i21" class="selected"></path><path d="M551.93583 468.226362a76.799674 76.799674 0 0 0-63.48773 27.647883 108.799538 108.799538 0 0 0-21.503909 71.167697 109.311535 109.311535 0 0 0 21.503909 71.167698A78.335667 78.335667 0 0 0 551.93583 665.601523 76.799674 76.799674 0 0 0 614.399565 640.001632a109.055537 109.055537 0 0 0 22.015906-71.679695 111.615526 111.615526 0 0 0-22.015906-73.727687 76.799674 76.799674 0 0 0-62.463735-26.367888z" fill="#f06e5d" p-id="19986" data-spm-anchor-id="a313x.7781069.0.i22" class="selected"></path></svg>