<?xml version="1.0" standalone="no"?><!DOCTYPE svg PUBLIC "-//W3C//DTD SVG 1.1//EN" "http://www.w3.org/Graphics/SVG/1.1/DTD/svg11.dtd"><svg t="1660383769123" class="icon" viewBox="0 0 1024 1024" version="1.1" xmlns="http://www.w3.org/2000/svg" p-id="2313" xmlns:xlink="http://www.w3.org/1999/xlink" width="200" height="200"><defs><style type="text/css">@font-face { font-family: feedback-iconfont; src: url("//at.alicdn.com/t/font_1031158_u69w8yhxdu.woff2?t=1630033759944") format("woff2"), url("//at.alicdn.com/t/font_1031158_u69w8yhxdu.woff?t=1630033759944") format("woff"), url("//at.alicdn.com/t/font_1031158_u69w8yhxdu.ttf?t=1630033759944") format("truetype"); }
</style></defs><path d="M594.944 0l335.124 341.32v563.2c0 65.996-52.5 119.48-117.294 119.48H209.546c-64.793 0-117.299-53.53-117.299-119.48V119.48C92.252 53.484 144.757 0 209.551 0h385.393z" fill="#627CFE" p-id="2314"></path><path d="M930.068 341.32H718.152c-64.748 0-123.208-59.49-123.208-125.492V0l335.124 341.32z" fill="#FFFFFF" fill-opacity=".4" p-id="2315"></path><path d="M519.68 606.628v66.422l120.832 73.4V533.407z" fill="#FFFFFF" opacity=".99" p-id="2316"></path><path d="M534.528 512.138H282.25a22.482 22.482 0 0 0-22.297 22.62v210.53c0 12.38 9.917 22.666 22.251 22.666h252.508a22.482 22.482 0 0 0 22.252-22.666V534.574a22.62 22.62 0 0 0-22.436-22.436zM356.25 719.36V560.548l127.078 79.4L356.25 719.36z" fill="#FFFFFF" opacity=".99" p-id="2317"></path></svg>