<?xml version="1.0" standalone="no"?><!DOCTYPE svg PUBLIC "-//W3C//DTD SVG 1.1//EN" "http://www.w3.org/Graphics/SVG/1.1/DTD/svg11.dtd"><svg t="1660485680442" class="icon" viewBox="0 0 1024 1024" version="1.1" xmlns="http://www.w3.org/2000/svg" p-id="16758" xmlns:xlink="http://www.w3.org/1999/xlink" width="200" height="200"><defs><style type="text/css">@font-face { font-family: feedback-iconfont; src: url("//at.alicdn.com/t/font_1031158_u69w8yhxdu.woff2?t=1630033759944") format("woff2"), url("//at.alicdn.com/t/font_1031158_u69w8yhxdu.woff?t=1630033759944") format("woff"), url("//at.alicdn.com/t/font_1031158_u69w8yhxdu.ttf?t=1630033759944") format("truetype"); }
</style></defs><path d="M923.136 969.557333H193.024v-909.653333h521.386667l208.725333 207.701333z" fill="#7CCDFF" p-id="16759"></path><path d="M912.896 253.952l2.56 671.914667c0 15.530667-12.458667 27.989333-27.989333 27.989333H237.909333c-15.530667 0-27.989333-12.458667-27.989333-27.989333V96.938667c0-15.530667 12.458667-27.989333 27.989333-27.989334l493.397334-1.024-38.912-39.936H239.274667c-36.352 0-65.706667 29.354667-65.706667 65.706667v835.584c0 36.352 29.354667 65.706667 65.706667 65.706667h646.826666c36.352 0 65.706667-29.354667 65.706667-65.706667V293.888l-38.912-39.936z" fill="#4191FB" p-id="16760"></path><path d="M692.394667 222.72c0 39.424 31.914667 71.338667 71.338666 71.338667h188.245334L692.394667 27.989333v194.730667z" fill="#C7E2FF" p-id="16761"></path><path d="M557.568 482.304H158.72c-50.346667 0-91.136-40.789333-91.136-91.136v-60.245333c0-50.346667 40.789333-91.136 91.136-91.136h398.848c50.346667 0 91.136 40.789333 91.136 91.136v60.245333c0 50.346667-40.789333 91.136-91.136 91.136z" fill="#4191FB" p-id="16762"></path><path d="M128.170667 365.568c0-25.429333 6.997333-45.226667 21.162666-59.392s33.962667-21.162667 59.221334-21.162667c25.941333 0 45.909333 6.997333 59.904 20.821334 13.994667 13.994667 20.992 33.450667 20.992 58.538666 0 18.261333-3.072 33.109333-9.216 44.714667-6.144 11.605333-15.018667 20.650667-26.624 27.136-11.605333 6.485333-25.941333 9.728-43.349334 9.728-17.578667 0-32.085333-2.730667-43.690666-8.362667-11.434667-5.632-20.821333-14.506667-27.989334-26.624-6.826667-12.117333-10.410667-27.306667-10.410666-45.397333z m48.128 0.170667c0 15.701333 2.901333 26.965333 8.704 33.962666 5.802667 6.826667 13.824 10.24 23.893333 10.24 10.410667 0 18.261333-3.413333 24.064-10.069333 5.632-6.656 8.533333-18.773333 8.533333-36.181333 0-14.677333-2.901333-25.429333-8.874666-32.085334-5.973333-6.826667-13.994667-10.069333-24.064-10.069333-9.728 0-17.578667 3.413333-23.381334 10.24-5.973333 6.656-8.874667 18.090667-8.874666 33.962667zM298.837333 287.573333h146.261334V325.973333H395.946667v117.248h-48.128V325.973333H298.666667v-38.4h0.170666zM467.114667 287.573333h118.954666v33.450667H515.413333V348.16h60.416v31.402667H515.413333v63.658666h-48.298666v-155.648z" fill="#FFFFFF" p-id="16763"></path><path d="M517.802667 562.346667h128.170666c15.872 0 15.872 0 15.872 16.384 0 21.504-0.341333 43.008 0.170667 64.682666 0.170667 8.704-2.56 12.629333-11.605333 12.117334-10.410667-0.512-20.821333-0.341333-31.232 0-7.168 0.170667-10.922667-2.389333-10.24-10.069334 0.170667-1.365333 0-2.901333 0-4.266666-0.341333-25.088 3.584-22.528-23.381334-22.528-10.069333 0-20.138667 0.170667-30.208 0-7.168-0.170667-10.581333 2.389333-10.581333 9.898666 0.170667 65.365333 0.170667 130.730667 0 195.925334 0 6.144 2.389333 9.557333 8.874667 9.216h2.218666c27.818667 0.853333 27.818667 0.853333 27.648 29.354666-0.170667 29.525333 2.56 25.258667-25.088 25.429334-31.232 0.170667-62.464-0.341333-93.696 0.170666-9.898667 0.170667-13.653333-3.072-13.141333-12.970666 0.682667-10.752 0.341333-21.504 0.170667-32.256-0.170667-6.826667 2.901333-10.069333 9.728-9.557334h3.242666c25.770667-0.341333 25.770667-0.341333 25.770667-26.624 0-58.197333-0.170667-116.394667 0.170667-174.421333 0-10.581333-2.730667-15.018667-13.824-14.336-13.312 0.853333-26.624 0.341333-39.765334 0.170667-7.338667-0.170667-10.922667 2.56-10.069333 10.069333v2.218667c-0.512 27.136 4.096 24.576-24.746667 24.746666-29.696 0.170667-29.696 0-29.696-29.525333 0-17.237333 0.341333-34.474667-0.170666-51.712-0.170667-8.874667 3.072-11.946667 11.946666-11.946667 44.373333 0 88.917333-0.170667 133.461334-0.170666z" fill="#4191FB" p-id="16764"></path><path d="M661.333333 706.56c25.770667 0 51.712 0.341333 77.482667-0.170667 10.581333-0.170667 14.165333 3.584 13.312 13.824-0.682667 9.216-0.512 18.602667 0 27.989334 0.512 8.533333-3.242667 11.776-11.434667 11.093333-3.242667-0.341333-6.485333-0.341333-9.728 0-9.898667 1.194667-15.36-2.218667-13.994666-12.970667 0-0.682667 0.170667-1.536-0.170667-2.048-6.997333-13.482667-19.114667-3.584-28.672-6.144-5.461333-1.536-9.728 0.853333-9.557333 7.850667 0.170667 34.474667 0.170667 68.949333 0 103.424 0 8.021333 5.290667 7.850667 10.922666 8.021333 13.141333 0.341333 12.629333 0.512 13.141334 17.92 0.341333 10.410667-3.413333 13.824-13.653334 13.482667-19.285333-0.682667-38.741333-0.512-58.197333 0-8.533333 0.170667-11.946667-3.242667-11.264-11.434667 0.170667-2.901333 0.170667-5.802667 0-8.533333-0.682667-8.192 2.730667-12.288 11.264-11.264 10.24 1.365333 12.8-3.413333 12.629333-12.970667-0.512-31.232-0.512-62.464 0-93.696 0.170667-10.752-3.754667-14.336-13.653333-12.970666-3.242667 0.341333-6.485333 0.341333-9.728 0-10.069333-1.024-17.066667 0.853333-15.530667 13.482666 0.682667 5.12-2.389333 8.021333-7.850666 7.850667h-2.218667c-29.013333-0.170667-24.576 2.389333-24.746667-23.381333 0.170667-29.354667 0.341333-29.354667 29.354667-29.354667h62.293333z" fill="#4191FB" p-id="16765"></path></svg>