<?xml version="1.0" standalone="no"?><!DOCTYPE svg PUBLIC "-//W3C//DTD SVG 1.1//EN" "http://www.w3.org/Graphics/SVG/1.1/DTD/svg11.dtd"><svg t="1660265215926" class="icon" viewBox="0 0 1024 1024" version="1.1" xmlns="http://www.w3.org/2000/svg" p-id="1914" xmlns:xlink="http://www.w3.org/1999/xlink" width="200" height="200"><defs><style type="text/css">@font-face { font-family: feedback-iconfont; src: url("//at.alicdn.com/t/font_1031158_u69w8yhxdu.woff2?t=1630033759944") format("woff2"), url("//at.alicdn.com/t/font_1031158_u69w8yhxdu.woff?t=1630033759944") format("woff"), url("//at.alicdn.com/t/font_1031158_u69w8yhxdu.ttf?t=1630033759944") format("truetype"); }
</style></defs><path d="M287 62h530.35714248C862.35714248 62 897.71428584 97.35714248 897.71428584 142.35714248V447.71428584H158.42857168V190.57142832c0-70.71428584 57.85714248-128.57142832 128.57142832-128.57142832z" fill="#B5F5EC" p-id="1915"></path><path d="M647 62H238.78571416C193.78571416 62 158.42857168 97.35714248 158.42857168 142.35714248v739.28571504C158.42857168 926.64285752 193.78571416 962 238.78571416 962h575.35714336c45 0 80.35714248-35.35714248 80.35714248-80.35714248V309.5L647 62z" fill="#36CFC9" p-id="1916"></path><path d="M650.21428584 62v186.42857168c0 32.14285752 25.71428584 61.07142832 61.07142832 61.07142832H897.71428584L650.21428584 62z" fill="#08979C" p-id="1917"></path><path d="M335.21428584 415.57142832m-48.21428584 0a48.21428584 48.21428584 0 1 0 96.42857168 0 48.21428584 48.21428584 0 1 0-96.42857168 0Z" fill="#B5F5EC" p-id="1918"></path><path d="M512 383.42857168h192.85714248c19.28571416 0 32.14285752 12.85714248 32.14285752 32.14285664s-12.85714248 32.14285752-32.14285752 32.14285752h-192.85714248c-19.28571416 0-32.14285752-12.85714248-32.14285752-32.14285752s12.85714248-32.14285752 32.14285752-32.14285664zM512 544.14285752h192.85714248c19.28571416 0 32.14285752 12.85714248 32.14285752 32.14285664s-12.85714248 32.14285752-32.14285752 32.14285752h-192.85714248c-19.28571416 0-32.14285752-12.85714248-32.14285752-32.14285752s12.85714248-32.14285752 32.14285752-32.14285664zM512 704.85714248h192.85714248c19.28571416 0 32.14285752 12.85714248 32.14285752 32.14285752s-12.85714248 32.14285752-32.14285752 32.14285752h-192.85714248c-19.28571416 0-32.14285752-12.85714248-32.14285752-32.14285752s12.85714248-32.14285752 32.14285752-32.14285752z" fill="#B5F5EC" p-id="1919"></path><path d="M335.21428584 576.28571416m-48.21428584 0a48.21428584 48.21428584 0 1 0 96.42857168 0 48.21428584 48.21428584 0 1 0-96.42857168 0Z" fill="#B5F5EC" p-id="1920"></path><path d="M335.21428584 737m-48.21428584 0a48.21428584 48.21428584 0 1 0 96.42857168 0 48.21428584 48.21428584 0 1 0-96.42857168 0Z" fill="#B5F5EC" p-id="1921"></path></svg>