<?xml version="1.0" standalone="no"?><!DOCTYPE svg PUBLIC "-//W3C//DTD SVG 1.1//EN" "http://www.w3.org/Graphics/SVG/1.1/DTD/svg11.dtd"><svg t="1638078782976" class="icon" viewBox="0 0 1024 1024" version="1.1" xmlns="http://www.w3.org/2000/svg" p-id="9440" xmlns:xlink="http://www.w3.org/1999/xlink" width="50" height="50"><defs><style type="text/css"></style></defs><path d="M490.2 221.7l-47.1-49.9c-13.8-14.6-32.9-22.9-52.9-22.9H186.1c-40.4 0-73.2 33-73.2 73.8v548.1c0 40.8 32.8 73.8 73.2 73.8h653.7c40.4 0 73.2-33 73.2-73.8V318.4c0-40.8-32.8-73.8-73.2-73.8H543.2c-20 0-39.2-8.3-53-22.9z" fill="#37AFFA" p-id="9441"></path><path d="M194 149h-7.9c-40.4 0-73.2 33-73.2 73.8v14.8c23-33.1 50.3-62.9 81.1-88.6zM912.9 318.4c0-37.1-27.2-67.9-62.6-73 29 43.8 50.5 92.9 62.6 145.7v-72.7zM912.9 770.8V591.2c-23.5 102.5-82.5 191.5-163.2 253.4h90.1c40.4 0 73.1-33 73.1-73.8zM112.9 744.7v26.2c0 40.8 32.8 73.8 73.2 73.8h22.2c-36.7-28.2-68.9-62-95.4-100z" fill="#37AFFA" p-id="9442"></path><path d="M249.1 149h-55c-30.8 25.7-58.1 55.5-81.1 88.6v67.6c30.3-63.7 77.6-117.7 136.1-156.2zM112.9 635.2v109.5c26.4 38.1 58.6 71.8 95.3 100h165.2c-115.2-26.6-210.7-105.1-260.5-209.5zM912.9 591.2V391c-12.1-52.8-33.6-101.9-62.6-145.7-3.4-0.5-7-0.8-10.5-0.8h-68.7c46 63.4 73.2 141.3 73.2 225.6 0 182.5-127.2 335.2-297.7 374.5h203.2c80.7-61.9 139.6-150.9 163.1-253.4z" fill="#41B6FB" p-id="9443"></path><path d="M844.3 470.2c0-84.3-27.1-162.3-73.2-225.6h-79.9c45.7 55.7 73.1 127 73.1 204.7 0 178.5-144.7 323.2-323.2 323.2S117.8 627.8 117.8 449.2c0-136.2 84.2-252.6 203.4-300.3H249c-58.5 38.5-105.8 92.5-136.1 156.2v330.1c49.7 104.4 145.2 182.9 260.6 209.4h173c170.6-39.2 297.8-192 297.8-374.4z" fill="#4CBCFC" p-id="9444"></path><path d="M117.8 449.2c0 178.5 144.7 323.2 323.2 323.2s323.2-144.7 323.2-323.2c0-77.7-27.4-148.9-73.1-204.7H609c46.5 47.3 75.2 112.2 75.2 183.7 0 144.8-117.4 262.2-262.2 262.2S159.9 573.1 159.9 428.3s117.4-262.2 262.2-262.2c5.2 0 10.3 0.2 15.4 0.5-13.2-11.3-29.9-17.6-47.4-17.6h-68.9C202 196.6 117.8 313.1 117.8 449.2z" fill="#56C3FD" p-id="9445"></path><path d="M159.9 428.3c0 144.8 117.4 262.2 262.2 262.2s262.2-117.4 262.2-262.2c0-71.6-28.7-136.4-75.2-183.7h-66c-20 0-39.1-8.3-52.9-22.9l-47.1-49.9c-1.8-1.9-3.6-3.6-5.6-5.3-5.1-0.3-10.2-0.5-15.4-0.5-144.8 0.1-262.2 117.5-262.2 262.3z m444.5-20.9c0 111.1-90.1 201.2-201.2 201.2S202 518.5 202 407.4s90-201.2 201.2-201.2 201.2 90.1 201.2 201.2z" fill="#60C9FD" p-id="9446"></path><path d="M202 407.4c0 111.1 90.1 201.2 201.2 201.2s201.2-90.1 201.2-201.2-90.1-201.2-201.2-201.2S202 296.3 202 407.4z m322.4-21c0 77.4-62.8 140.2-140.2 140.2S244 463.9 244 386.4s62.8-140.2 140.2-140.2S524.4 309 524.4 386.4z" fill="#6BCFFE" p-id="9447"></path><path d="M384.2 386.4m-140.2 0a140.2 140.2 0 1 0 280.4 0 140.2 140.2 0 1 0-280.4 0Z" fill="#75D6FF" p-id="9448"></path><path d="M390.2 167c15 0 29.5 6.3 39.9 17.2l47.1 49.9c17.1 18.1 41.2 28.5 66 28.5h296.6c30.4 0 55.2 25 55.2 55.8v452.5c0 30.8-24.7 55.8-55.2 55.8H186.1c-30.4 0-55.2-25-55.2-55.8V222.8c0-30.8 24.7-55.8 55.2-55.8h204.1m0-18H186.1c-40.4 0-73.2 33-73.2 73.8v548.1c0 40.8 32.8 73.8 73.2 73.8h653.7c40.4 0 73.2-33 73.2-73.8V318.4c0-40.8-32.8-73.8-73.2-73.8H543.2c-20 0-39.1-8.3-52.9-22.9l-47.1-49.9c-13.9-14.6-33-22.8-53-22.8z" fill="#37AFFA" p-id="9449"></path><path d="M130.9 353.5h556.5c19.2 0 34.8 15.6 34.8 34.8v139.1c0 19.2-15.6 34.8-34.8 34.8H130.9V353.5z" fill="#B9E8FF" p-id="9450"></path><path d="M379.3 226.2H255.2c-9.9 0-18-8.1-18-18s8.1-18 18-18h124.1c9.9 0 18 8.1 18 18s-8.1 18-18 18z" fill="#FFFFFF" p-id="9451"></path><path d="M195.2 226.2h-10.5c-9.9 0-18-8.1-18-18s8.1-18 18-18h10.5c9.9 0 18 8.1 18 18s-8 18-18 18z" fill="#FFFFFF" p-id="9452"></path></svg>