<svg t="1660028120699" class="icon" viewBox="0 0 1024 1024" version="1.1" xmlns="http://www.w3.org/2000/svg" p-id="2388" width="200" height="200"><path d="M112 16h736v992H112z" fill="#FBBD9B" p-id="2389"></path><path d="M258.032 787.328A31.92 31.92 0 0 0 272 848a32 32 0 0 0 18.032-58.416 191.872 191.872 0 0 1 163.904-163.616c5.76 8.368 15.136 14.032 26.064 14.032s20.304-5.664 26.064-14.032a191.856 191.856 0 0 1 163.904 163.616A32 32 0 1 0 720 816c0-12.64-7.392-23.472-18.032-28.672A224.16 224.16 0 0 0 595.216 624h65.216c5.552 9.536 15.744 16 27.568 16a32 32 0 0 0 0-64c-11.808 0-22.016 6.464-27.568 16h-152.88c-5.552-9.536-15.744-16-27.568-16s-22.016 6.464-27.568 16h-152.88a31.84 31.84 0 0 0-27.568-16 32 32 0 0 0 0 64c11.808 0 22.016-6.464 27.568-16h65.216a224.224 224.224 0 0 0-106.72 163.328zM896 128h-32V32a32 32 0 0 0-32-32H128a32 32 0 0 0-32 32v960a32 32 0 0 0 32 32h704a32 32 0 0 0 32-32V416h32a32 32 0 0 0 32-32V160a32 32 0 0 0-32-32z m-64 0H448a32 32 0 0 0-32 32v224a32 32 0 0 0 32 32h384v576H128V32h704v96z" fill="#2B3139" p-id="2390"></path><path d="M448 160h448v224H448z" fill="#FFFFFF" p-id="2391"></path><path d="M623.04 213.824h34.384l41.584 114.176h-36.464l-4.8-16.32H621.44l-5.12 16.32h-35.328l42.048-114.176z m27.68 73.392l-10.24-35.168h-0.32l-11.024 35.168h21.584zM706.912 213.824h35.184V328h-35.184v-114.176z" fill="#2B3139" p-id="2392"></path></svg>