<svg t="1651252271774" class="icon" viewBox="0 0 1024 1024" version="1.1" xmlns="http://www.w3.org/2000/svg" p-id="2601" width="200" height="200"><path d="M112 16h736v992H112z" fill="#F48284" p-id="2602"></path><path d="M480 608c-123.712 0-224 100.288-224 224h448c0-123.712-100.288-224-224-224z" fill="#AED796" p-id="2603"></path><path d="M568 736a24 24 0 1 0-0.016-48.016A24 24 0 0 0 568 736z m-176 0a24 24 0 1 0-0.016-48.016A24 24 0 0 0 392 736zM240 832a16 16 0 0 0 16 16h448a16 16 0 0 0 16-16c0-76.56-35.984-144.592-91.808-188.544l55.184-55.168a16.752 16.752 0 0 0-23.664-23.664L600 624.352a238.752 238.752 0 0 0-240 0l-59.728-59.728a16.752 16.752 0 0 0-23.664 23.664l55.184 55.168C275.984 687.408 240 755.44 240 832z m240-208c109.472 0 199.008 84.624 207.184 192H272.816c8.176-107.376 97.712-192 207.184-192zM896 128h-32V32a32 32 0 0 0-32-32H128a32 32 0 0 0-32 32v960a32 32 0 0 0 32 32h704a32 32 0 0 0 32-32V416h32a32 32 0 0 0 32-32V160a32 32 0 0 0-32-32z m-64 0H448a32 32 0 0 0-32 32v224a32 32 0 0 0 32 32h384v576H128V32h704v96z" fill="#2B3139" p-id="2604"></path><path d="M448 160h448v224H448z" fill="#FFFFFF" p-id="2605"></path><path d="M531.12 213.824h34.384l41.584 114.176h-36.464l-4.8-16.32h-36.304l-5.104 16.32h-35.344l42.048-114.176z m27.68 73.392l-10.24-35.168h-0.336l-11.024 35.168h21.6zM614.992 213.824h58.848c31.024 0 41.904 22.704 41.904 39.008 0 27.664-18.544 40.608-44.784 40.608h-20.784v34.56h-35.184v-114.176z m35.184 52.464h13.6c9.104 0 18.704-0.64 18.704-12.16 0-10.4-8-11.024-16.624-11.024h-15.664v23.184zM728.576 213.824h35.184v39.328h0.32l31.344-39.328h43.344l-41.424 44.608 48.144 69.568h-43.808l-28.16-44.448-9.744 10.72V328h-35.184v-114.176z" fill="#2B3139" p-id="2606"></path></svg>