<svg t="1660028541132" class="icon" viewBox="0 0 1024 1024" version="1.1" xmlns="http://www.w3.org/2000/svg" p-id="3908" width="200" height="200"><path d="M112 16h736v992H112z" fill="#C5BCDD" p-id="3909"></path><path d="M368 544h224v320H368z" fill="#A0DAF7" p-id="3910"></path><path d="M672 528H288v352h384V528zM352 848h-32v-32h32v32z m0-64h-32v-32h32v32z m0-64h-32v-32h32v32z m0-64h-32v-32h32v32z m0-64h-32v-32h32v32z m224 256H384v-128h192v128z m0-160H384v-128h192v128z m64 160h-32v-32h32v32z m0-64h-32v-32h32v32z m0-64h-32v-32h32v32z m0-64h-32v-32h32v32z m0-64h-32v-32h32v32zM896 128h-32V32a32 32 0 0 0-32-32H128a32 32 0 0 0-32 32v960a32 32 0 0 0 32 32h704a32 32 0 0 0 32-32V416h32a32 32 0 0 0 32-32V160a32 32 0 0 0-32-32z m-64 0H448a32 32 0 0 0-32 32v224a32 32 0 0 0 32 32h384v576H128V32h704v96z" fill="#2B3139" p-id="3911"></path><path d="M448 160h448v224H448z" fill="#FFFFFF" p-id="3912"></path><path d="M573.616 213.824H608l41.568 114.176H613.12l-4.8-16.32h-36.304l-5.104 16.32h-35.344l42.048-114.176z m27.664 73.392l-10.24-35.168h-0.32l-11.024 35.168h21.584zM714.24 328h-39.344l-34.064-114.176h35.504l18.72 69.232h0.32l18.384-69.232h36.144L714.24 328zM756.336 213.824h35.184V328h-35.184v-114.176z" fill="#2B3139" p-id="3913"></path></svg>