<svg t="1660028231494" class="icon" viewBox="0 0 1024 1024" version="1.1" xmlns="http://www.w3.org/2000/svg" p-id="2843" width="200" height="200"><path d="M112 16h736v992H112z" fill="#C5BCDD" p-id="2844"></path><path d="M640 800c0 4.416 1.12 1.024 0 0z m-48-96c0-41.488 9.84-53.552 32-80 12.064-14.384-18.48-29.248-45.36-32.064-23.856-2.48-57.472 16.112-75.712 16.416h-0.464c-18.256-0.32-51.856-18.912-75.728-16.416-11.872 1.232-49.808 9.152-72.704 45.824-8.032 12.864-14.208 29.28-16.752 50.192a181.12 181.12 0 0 0-1.248 24.416c0.112 8.784 0.816 17.392 2 25.76 2.56 17.872 7.392 34.736 13.632 50.192a229.152 229.152 0 0 0 24.736 45.632c20.352 28.992 43.424 45.728 56.4 46.032 26.704 0.608 49.904-17.568 69.056-17.072a1.92 1.92 0 0 0 0.608 0.032h0.464c0.208 0.032 0.384 0 0.576-0.032 19.152-0.496 42.368 17.072 69.088 17.072C602.72 879.984 640 823.392 640 800c-22.432-20.416-48-41.184-48-96z" fill="#A0DAF7" p-id="2845"></path><path d="M554.416 548.08c22.512-27.088 21.648-66.112 19.616-67.84s-39.248 5.2-62.32 31.408c-23.056 26.224-21.648 66.128-19.616 67.856s39.84-4.32 62.32-31.424z m-217.264 246.24a254.72 254.72 0 0 0 27.168 50.608c22.336 32.144 47.648 50.736 61.888 51.056 29.312 0.672 54.784-19.488 75.792-18.96 0.224 0.048 0.448 0.064 0.672 0.048h0.512c0.224 0.016 0.432 0 0.656-0.048 21.008-0.544 46.496 19.632 75.824 18.96 14.256-0.336 39.568-18.928 61.888-51.056a254.336 254.336 0 0 0 30.416-59.232c-46.64-14.88-64-46.384-64-81.68 0-21.088 7.664-51.648 42.352-76.72 3.104-2.256 6.368-4.288 9.76-6.096-23.52-37.664-61.696-44.752-73.808-44.768-45.184 0-57.072 18.224-83.104 18.224h-0.512c-20.032-0.336-56.912-20.976-83.104-18.224-13.024 1.376-54.688 10.176-79.808 50.864-8.816 14.272-15.584 32.464-18.384 55.664A209.68 209.68 0 0 0 320 710.048c0.128 9.728 0.896 19.28 2.208 28.576 2.816 19.824 8.128 38.544 14.944 55.696z m15.968-101.024c0.64-5.152 3.232-85.248 78.88-85.296 17.552 0 47.616 15.712 64 16h16c34.384 0 45.568-16 64-16 5.92 0 20.976-2.048 31.376 6.832 3.536 3.008 6.096 4.336 4.624 5.664A112.96 112.96 0 0 0 576 704c0 58.72 37.344 86.336 56 99.008 0.544-1.632 1.12 0.768 0 0-1.824 5.36-9.664 20.96-17.888 31.072-19.904 24.512-29.984 29.904-45.648 29.904-24 0-48.848-15.632-66.048-15.184a1.44 1.44 0 0 1-0.528 0.048l-0.208-0.016-0.224 0.016a1.6 1.6 0 0 1-0.544-0.048c-17.184-0.416-38.032 15.712-62.016 15.184-11.664-0.272-32.352-15.152-50.64-40.912a202.272 202.272 0 0 1-22.224-40.56 190.816 190.816 0 0 1-12.24-44.608A175.92 175.92 0 0 1 352 714.992c-0.08-7.76 0.32-14.992 1.12-21.696zM896 128h-32V32a32 32 0 0 0-32-32H128a32 32 0 0 0-32 32v960a32 32 0 0 0 32 32h704a32 32 0 0 0 32-32V416h32a32 32 0 0 0 32-32V160a32 32 0 0 0-32-32z m-64 0H448a32 32 0 0 0-32 32v224a32 32 0 0 0 32 32h384v576H128V32h704v96z" fill="#2B3139" p-id="2846"></path><path d="M448 160h448v224H448z" fill="#FFFFFF" p-id="2847"></path><path d="M479.792 213.824h57.728c38.064 0 51.488 28.144 51.488 56.928 0 35.008-18.528 57.248-58.352 57.248h-50.848v-114.176z m35.184 84.912h13.744c21.904 0 25.104-17.744 25.104-28.464 0-7.184-2.24-27.168-27.664-27.168h-11.2v55.632zM600.112 213.824h50.048l16.32 67.152h0.32l16.32-67.152h50.064V328h-33.264v-73.232h-0.336l-19.84 73.232h-26.24l-19.824-73.232h-0.32V328h-33.264v-114.176zM830.944 316.336c-7.84 10.08-19.984 14.384-32.464 14.384-33.728 0-54.528-26.224-54.528-58.688 0-43.504 30.56-60.928 56.304-60.928 29.104 0 47.504 15.824 52.608 42.688h-33.728c-1.28-8.32-8.336-14.24-16.64-14.24-24.144 0-23.344 25.44-23.344 33.264 0 10.72 4.32 29.424 25.744 29.424 8.16 0 16.464-4.16 18.224-12.624h-15.504v-24.464h46.688V328h-22.224l-1.136-11.664z" fill="#2B3139" p-id="2848"></path></svg>