<svg t="1660028439981" class="icon" viewBox="0 0 1024 1024" version="1.1" xmlns="http://www.w3.org/2000/svg" p-id="3450" width="200" height="200"><path d="M112 16h736v992H112z" fill="#C5BCDD" p-id="3451"></path><path d="M480 576a128 128 0 1 0 0 256 128 128 0 0 0 0-256z m0 192a64 64 0 1 1 0-128 64 64 0 0 1 0 128z" fill="#E6F6FD" p-id="3452"></path><path d="M304 736h36.016a144.208 144.208 0 0 0 18.576 44.16l-25.664 25.664a15.984 15.984 0 0 0 0 22.624l22.624 22.624a15.984 15.984 0 0 0 22.624 0l25.536-25.536a142.288 142.288 0 0 0 44.304 18.768V880a16 16 0 0 0 16 16h32a16 16 0 0 0 16-16v-35.68a142.288 142.288 0 0 0 44.304-18.768l25.536 25.536a15.984 15.984 0 0 0 22.624 0l22.624-22.624a15.984 15.984 0 0 0 0-22.624l-25.664-25.664a143.824 143.824 0 0 0 18.576-44.16H656a16 16 0 0 0 16-16v-32a16 16 0 0 0-16-16h-36.016a144.208 144.208 0 0 0-18.576-44.16l25.664-25.664a15.984 15.984 0 0 0 0-22.624l-22.624-22.624a15.984 15.984 0 0 0-22.624 0l-25.536 25.536a142.288 142.288 0 0 0-44.304-18.768V528a16 16 0 0 0-16-16h-32a16 16 0 0 0-16 16v35.68a142.288 142.288 0 0 0-44.304 18.768l-25.536-25.536a15.984 15.984 0 0 0-22.624 0l-22.624 22.624a15.984 15.984 0 0 0 0 22.624l25.664 25.664a143.824 143.824 0 0 0-18.576 44.16H304a16 16 0 0 0-16 16v32A16 16 0 0 0 304 736z m176-144a112 112 0 1 1 0 224 112 112 0 0 1 0-224z m0 192c44.192 0 80-35.808 80-80s-35.808-80-80-80-80 35.808-80 80 35.808 80 80 80z m0-128a48 48 0 1 1 0 96 48 48 0 0 1 0-96zM896 128h-32V32a32 32 0 0 0-32-32H128a32 32 0 0 0-32 32v960a32 32 0 0 0 32 32h704a32 32 0 0 0 32-32V416h32a32 32 0 0 0 32-32V160a32 32 0 0 0-32-32z m-64 0H448a32 32 0 0 0-32 32v224a32 32 0 0 0 32 32h384v576H128V32h704v96z" fill="#2B3139" p-id="3453"></path><path d="M448 160h448v224H448z" fill="#FFFFFF" p-id="3454"></path><path d="M503.872 216.496h94.512v29.264H539.04v14.224h53.888v27.184H539.04v14.24h61.072v29.264h-96.256v-114.176zM646.736 269.904l-37.584-53.408h41.248l17.28 31.008 16.944-31.008h39.024l-36.624 53.712 40.784 60.448H685.44l-19.52-34.064-20.144 34.064h-40.32l41.28-60.752zM735.056 216.496h94.512v29.264H770.24v14.224h53.888v27.184H770.24v14.24h61.088v29.264H735.04v-114.176z" fill="#2B3139" p-id="3455"></path></svg>