<svg t="1660028400746" class="icon" viewBox="0 0 1024 1024" version="1.1" xmlns="http://www.w3.org/2000/svg" p-id="3299" width="200" height="200"><path d="M112 16h736v992H112z" fill="#F48284" p-id="3300"></path><path d="M386.032 869.616c30.24-12.272 67.248-40.656 87.728-74.512 7.968-13.28 24.992-44.88 38.24-75.104h80v-32h-68.336c4.992-19.392 13.328-44.512 37.52-76.88 23.072-35.232 78.912-34.704 78.912-34.704L640 544.336s-46.272-7.424-94.672 31.008c-54.176 48.352-57.312 153.968-120.032 222.8C372.064 856.528 320 848 320 848l-0.096 31.824s36 1.968 66.128-10.208zM896 128h-32V32a32 32 0 0 0-32-32H128a32 32 0 0 0-32 32v960a32 32 0 0 0 32 32h704a32 32 0 0 0 32-32V416h32a32 32 0 0 0 32-32V160a32 32 0 0 0-32-32z m-64 0H448a32 32 0 0 0-32 32v224a32 32 0 0 0 32 32h384v576H128V32h704v96z" fill="#2B3139" p-id="3301"></path><path d="M448 160h448v224H448z" fill="#FFFFFF" p-id="3302"></path><path d="M530.496 216.496h88.288v29.264h-53.088v14.224h45.584v27.184h-45.584v43.504h-35.184v-114.176zM631.312 216.496h35.168v84.912h50.528v29.264h-85.696v-114.176zM778.96 330.672h-39.344l-34.064-114.176h35.504l18.72 69.232h0.32l18.384-69.232h36.144l-35.664 114.176z" fill="#2B3139" p-id="3303"></path></svg>