<svg t="1651252177161" class="icon" viewBox="0 0 1024 1024" version="1.1" xmlns="http://www.w3.org/2000/svg" p-id="2174" width="200" height="200"><path d="M112 16h736v992H112z" fill="#F48284" p-id="2175"></path><path d="M704 848l-112-112h64l-112-112h64l-112-112-112 112h64l-112 112h64l-96 112z" fill="#AED796" p-id="2176"></path><path d="M464 848h64v64h-64z" fill="#C6AB97" p-id="2177"></path><path d="M288 864h160v48a16 16 0 0 0 16 16h64a16 16 0 0 0 16-16v-48h160c6.88 0 12.608-4.352 14.88-10.416a16.64 16.64 0 0 0-3.504-18.368l-83.2-83.2H656c6.88 0 12.608-4.352 14.88-10.416a16.64 16.64 0 0 0-3.504-18.368l-83.2-83.2H608c6.88 0 12.608-4.352 14.88-10.416a16.64 16.64 0 0 0-3.504-18.368L508.8 500.624a16.432 16.432 0 0 0-12.8-4.704 16.544 16.544 0 0 0-12.8 4.704L372.624 611.2a16.656 16.656 0 0 0-3.504 18.368c2.272 6.08 8.016 10.432 14.88 10.432h23.824l-83.2 83.2a16.656 16.656 0 0 0-3.504 18.368c2.272 6.08 8.016 10.432 14.88 10.432h23.824l-83.2 83.2a16.656 16.656 0 0 0-3.504 18.368c2.272 6.08 8.016 10.432 14.88 10.432z m224 32h-32v-32h32v32z m-101.152-147.712a16.64 16.64 0 0 0 3.728-5.776 15.872 15.872 0 0 0-9.008-21.392 16.32 16.32 0 0 0-7.952-1.12h-22.496l83.712-83.712a16.64 16.64 0 0 0 3.728-5.776A15.888 15.888 0 0 0 464 624a15.872 15.872 0 0 0-10.432-14.88 16.32 16.32 0 0 0-7.952-1.12h-22.496L496 535.12 568.88 608h-22.496a16.32 16.32 0 0 0-7.952 1.12A15.872 15.872 0 0 0 528 624c0 2.336 0.544 4.496 1.44 6.48 0.816 2.112 2.016 4.096 3.712 5.792L616.88 720h-22.496a16.32 16.32 0 0 0-7.952 1.12A15.872 15.872 0 0 0 576 736c0 2.336 0.544 4.496 1.44 6.48 0.816 2.112 2.016 4.096 3.712 5.792L664.88 832h-337.76l83.728-83.712zM896 128h-32V32a32 32 0 0 0-32-32H128a32 32 0 0 0-32 32v960a32 32 0 0 0 32 32h704a32 32 0 0 0 32-32V416h32a32 32 0 0 0 32-32V160a32 32 0 0 0-32-32z m-64 0H448a32 32 0 0 0-32 32v224a32 32 0 0 0 32 32h384v576H128V32h704v96z" fill="#2B3139" p-id="2178"></path><path d="M448 160h448v224H448z" fill="#FFFFFF" p-id="2179"></path><path d="M620.144 316.336c-7.824 10.064-19.984 14.384-32.464 14.384-33.744 0-54.528-26.224-54.528-58.688 0-43.504 30.528-60.928 56.288-60.928 29.104 0 47.504 15.824 52.608 42.688H608.32c-1.28-8.32-8.32-14.24-16.64-14.24-24.144 0-23.344 25.44-23.344 33.264 0 10.72 4.336 29.424 25.744 29.424 8.16 0 16.464-4.16 18.24-12.624h-15.52v-24.464h46.688V328h-22.224l-1.12-11.664zM660.992 213.824h35.184V328h-35.184v-114.176zM714.272 213.824h88.272v29.264h-53.072v14.224h45.568v27.184h-45.568V328h-35.184v-114.176z" fill="#2B3139" p-id="2180"></path></svg>