<svg t="1660028351048" class="icon" viewBox="0 0 1024 1024" version="1.1" xmlns="http://www.w3.org/2000/svg" p-id="3147" width="200" height="200"><path d="M112 16h736v992H112z" fill="#EEBFD9" p-id="3148"></path><path d="M480 528c-97.2 0-176 78.8-176 176s78.8 176 176 176 176-78.8 176-176-78.8-176-176-176z m0 208a32 32 0 1 1 0.016-64.016A32 32 0 0 1 480 736z" fill="#FFFFFF" p-id="3149"></path><path d="M480 752a48 48 0 1 0 0-96 48 48 0 0 0 0 96z m0-64a16 16 0 1 1 0 32 16 16 0 1 1 0-32zM896 128h-32V32a32 32 0 0 0-32-32H128a32 32 0 0 0-32 32v960a32 32 0 0 0 32 32h704a32 32 0 0 0 32-32V416h32a32 32 0 0 0 32-32V160a32 32 0 0 0-32-32z m-64 0H448a32 32 0 0 0-32 32v224a32 32 0 0 0 32 32h384v576H128V32h704v96zM480 896c106.032 0 192-85.968 192-192s-85.968-192-192-192c-106.048 0-192 85.968-192 192s85.952 192 192 192z m0-352c88.352 0 160 71.648 160 160s-71.648 160-160 160-160-71.648-160-160 71.648-160 160-160z" fill="#2B3139" p-id="3150"></path><path d="M448 160h448v224H448z" fill="#FFFFFF" p-id="3151"></path><path d="M532.112 216.496h35.168v114.176h-35.168v-114.176zM613.376 292.304c0 2.88 0.464 5.44 1.28 7.52 2.56 6.88 10.224 8.32 16.784 8.32 5.76 0 14.56-1.92 14.56-10.384 0-5.92-4.976-7.52-24.624-13.104-18.08-5.12-38.704-10.08-38.704-33.104 0-26.384 22.544-37.728 46.048-37.728 24.784 0 46.704 9.44 47.664 37.248h-33.248a8.752 8.752 0 0 0-4.16-9.104c-2.896-2.08-6.88-2.88-10.4-2.88-4.8 0-12.624 1.28-12.624 7.664 0.624 8.16 16.944 9.904 33.088 14.384s32.144 12 32.144 32.944c0 29.744-27.344 39.344-52.768 39.344-12.96 0-49.904-4.64-50.224-41.088h35.184zM746.624 213.776c34.72 0 57.904 24.944 57.904 59.792s-23.184 59.808-57.904 59.808c-34.688 0-57.872-24.96-57.872-59.808s23.184-59.792 57.872-59.792z m0 91.152c8.976 0 22.72-5.904 22.72-31.344 0-25.424-13.744-31.344-22.72-31.344-8.944 0-22.688 5.92-22.688 31.344s13.744 31.344 22.688 31.344z" fill="#2B3139" p-id="3152"></path></svg>