<svg t="1660028200026" class="icon" viewBox="0 0 1024 1024" version="1.1" xmlns="http://www.w3.org/2000/svg" p-id="2690" width="200" height="200"><path d="M112 16h736v992H112z" fill="#FEEB9E" p-id="2691"></path><path d="M256 528h448v352H256z" fill="#A0DAF7" p-id="2692"></path><path d="M592 672l-80 80-112-112-144 144v96h448v-96z" fill="#8DA7B6" p-id="2693"></path><path d="M896 128h-32V32a32 32 0 0 0-32-32H128a32 32 0 0 0-32 32v960a32 32 0 0 0 32 32h704a32 32 0 0 0 32-32V416h32a32 32 0 0 0 32-32V160a32 32 0 0 0-32-32z m-64 0H448a32 32 0 0 0-32 32v224a32 32 0 0 0 32 32h384v576H128V32h704v96zM272 896h416a32 32 0 0 0 32-32v-79.472V544a32 32 0 0 0-32-32H272a32 32 0 0 0-32 32v320a32 32 0 0 0 32 32z m0-352h416v201.536l-83.904-83.92c-0.288-0.336-0.384-0.736-0.688-1.024a15.824 15.824 0 0 0-11.408-4.624 15.872 15.872 0 0 0-11.424 4.624c-0.32 0.32-0.416 0.736-0.704 1.056L512 729.536l-99.92-99.92c-0.272-0.336-0.368-0.736-0.672-1.024a15.84 15.84 0 0 0-11.408-4.624 15.872 15.872 0 0 0-11.424 4.624c-0.32 0.32-0.416 0.736-0.704 1.056L272 745.52V544z m0 246.464l128-128 99.92 99.92c0.272 0.32 0.368 0.72 0.672 1.008s0.704 0.4 1.024 0.688l31.328 31.312a15.84 15.84 0 0 0 22.464 0 15.84 15.84 0 0 0 0-22.464L534.464 752 592 694.464l96 96V864H272v-73.536z" fill="#2B3139" p-id="2694"></path><path d="M448 160h448v224H448z" fill="#FFFFFF" p-id="2695"></path><path d="M587.984 286.912c0 31.504-14.24 43.808-42.864 43.808-28.944 0-41.888-16.16-41.888-41.088v-9.6h31.664v6.544c0 8.8 0 16.96 9.44 16.96 9.104 0 8.464-11.024 8.464-16.16v-73.552h35.184v73.088zM606.112 213.824h58.848c31.024 0 41.888 22.704 41.888 39.008 0 27.664-18.544 40.608-44.768 40.608h-20.8v34.56h-35.168v-114.176z m35.168 52.464h13.6c9.12 0 18.72-0.64 18.72-12.16 0-10.4-8-11.024-16.64-11.024h-15.68v23.184zM802.368 316.336c-7.824 10.08-19.984 14.384-32.448 14.384-33.744 0-54.528-26.224-54.528-58.688 0-43.504 30.544-60.928 56.288-60.928 29.104 0 47.504 15.824 52.608 42.688H790.56c-1.28-8.32-8.32-14.24-16.624-14.24-24.16 0-23.36 25.44-23.36 33.264 0 10.72 4.336 29.424 25.744 29.424 8.16 0 16.464-4.16 18.24-12.624h-15.52v-24.464h46.704V328h-22.24l-1.136-11.664z" fill="#2B3139" p-id="2696"></path></svg>