<?xml version="1.0" encoding="utf-8"?>
<!-- Generator: Adobe Illustrator 26.1.0, SVG Export Plug-In . SVG Version: 6.00 Build 0)  -->
<svg version="1.1" id="图层_1" xmlns="http://www.w3.org/2000/svg" xmlns:xlink="http://www.w3.org/1999/xlink" x="0px" y="0px"
	 viewBox="0 0 200 200" style="enable-background:new 0 0 200 200;" xml:space="preserve">
<style type="text/css">
	.st0{fill:#FBBD9B;}
	.st1{fill:#2B3139;}
	.st2{fill:#FFFFFF;}
</style>
<path class="st0" d="M21.9,3.1h143.8v193.8H21.9V3.1z"/>
<path class="st1" d="M134.7,142.5c-0.2,0.4-0.3,0.8-0.3,1.3v18.8h-3.1c-1.7,0-3.1,1.4-3.1,3.1s1.4,3.1,3.1,3.1h6.2
	c1.7,0,3.1-1.4,3.1-3.1v-20.4l5.3-5.3c0.7-0.7,0.9-1.5,0.9-2.4c0-0.9-0.3-1.8-0.9-2.4l-5.3-5.3v-20.4c0-1.7-1.4-3.1-3.1-3.1h-6.2
	c-1.7,0-3.1,1.4-3.1,3.1s1.4,3.1,3.1,3.1h3.1v18.7c0,0.9,0.3,1.8,0.9,2.4l3.9,3.9l-3.8,3.8C135.1,141.6,134.8,142,134.7,142.5
	L134.7,142.5z M93.5,143.8c3.5,0,6.3-2.8,6.2-6.3s-2.8-6.3-6.3-6.2c-3.5,0-6.3,2.8-6.2,6.3C87.3,141,90.1,143.8,93.5,143.8z M175,25
	h-6.2V6.2c0-3.5-2.8-6.2-6.2-6.2H25c-3.5,0-6.2,2.8-6.2,6.2v187.5c0,3.5,2.8,6.2,6.2,6.2h137.5c3.5,0,6.2-2.8,6.2-6.2V81.2h6.2
	c3.5,0,6.2-2.8,6.2-6.2V31.2C181.2,27.8,178.5,25,175,25z M162.5,25h-75c-3.5,0-6.2,2.8-6.2,6.2V75c0,3.5,2.8,6.2,6.2,6.2h75v112.5
	H25V6.2h137.5V25z M46.9,145.2v20.4c0,1.7,1.4,3.1,3.1,3.1h6.2c1.7,0,3.1-1.4,3.1-3.1s-1.4-3.1-3.1-3.1h-3.1v-18.8
	c0-0.4-0.1-0.9-0.3-1.3c-0.2-0.4-0.4-0.8-0.7-1.2l-3.8-3.8l3.9-3.9c0.7-0.7,1-1.6,0.9-2.4v-18.7h3.1c1.7,0,3.1-1.4,3.1-3.1
	s-1.4-3.1-3.1-3.1H50c-1.7,0-3.1,1.4-3.1,3.1v20.4l-5.3,5.3c-0.7,0.7-1,1.5-0.9,2.4c0,0.9,0.3,1.7,0.9,2.4L46.9,145.2z M115.9,143.8
	c3.5,0,6.3-2.8,6.2-6.3s-2.8-6.3-6.3-6.2c-3.5,0-6.3,2.8-6.2,6.3C109.6,141,112.4,143.8,115.9,143.8z M71.6,143.8
	c3.5,0,6.3-2.8,6.2-6.3s-2.8-6.3-6.3-6.2c-3.5,0-6.3,2.8-6.2,6.3C65.4,141,68.2,143.8,71.6,143.8z"/>
<path class="st2" d="M87.5,31.2H175V75H87.5V31.2z"/>
<path class="st1" d="M102.1,56.4c0,1.8-0.2,3-0.6,3.6c-0.4,0.6-1.1,0.9-2.2,0.9c-1,0-1.8-0.4-2.3-1.2c-0.3-0.5-0.5-1.4-0.6-2.7
	l-4.3,0.5c0,2.4,0.6,4.2,1.8,5.5c1.2,1.2,2.9,1.9,5.1,1.9c1.9,0,3.4-0.4,4.6-1.2c1.1-0.8,2-1.9,2.4-3.2c0.3-1,0.5-2.4,0.5-4.3V41.8
	h-4.5V56.4z M111.5,62.8c1.5,1.3,3.7,2,6.6,2c2,0,3.6-0.3,4.9-0.8c1.3-0.5,2.3-1.4,3.1-2.5c0.7-1.1,1.1-2.3,1.1-3.6
	c0-1.4-0.3-2.6-0.9-3.6c-0.6-1-1.5-1.8-2.5-2.3c-1.1-0.6-2.7-1.1-4.9-1.6c-2.2-0.5-3.6-1-4.2-1.5c-0.4-0.3-0.7-0.8-0.7-1.4
	c0-0.6,0.3-1.1,0.7-1.4c0.8-0.5,1.8-0.8,3.1-0.8c1.3,0,2.2,0.3,2.9,0.8s1.1,1.3,1.3,2.5l4.6-0.2c-0.1-2.1-0.8-3.7-2.3-5
	c-1.4-1.2-3.6-1.9-6.4-1.9c-1.7,0-3.2,0.3-4.4,0.8c-1.2,0.5-2.1,1.3-2.8,2.3c-0.6,1-1,2.1-1,3.2c0,1.8,0.7,3.3,2.1,4.5
	c1,0.9,2.7,1.6,5.1,2.2c1.9,0.5,3.1,0.8,3.7,1c0.8,0.3,1.3,0.6,1.6,1c0.3,0.4,0.5,0.9,0.5,1.4c0,0.8-0.4,1.6-1.1,2.2
	c-0.7,0.6-1.9,0.9-3.3,0.9c-1.4,0-2.5-0.3-3.3-1c-0.8-0.7-1.4-1.8-1.6-3.3l-4.4,0.4C109,59.6,110,61.5,111.5,62.8z M131.4,61.7
	c2,2.1,4.7,3.1,8,3.1c3.3,0,6-1,8-3.1c2-2.1,3-4.9,3-8.6c0-3.7-1-6.6-3-8.6c-2-2.1-4.7-3.1-8-3.1c-1.8,0-3.5,0.3-4.9,0.9
	c-1.1,0.5-2.1,1.2-2.9,2c-0.9,0.9-1.6,1.9-2.1,3.1c-0.7,1.6-1,3.5-1,5.8C128.5,56.9,129.4,59.7,131.4,61.7z M134.9,47.3
	c1.2-1.3,2.7-1.9,4.5-1.9c1.9,0,3.4,0.6,4.5,1.9c1.1,1.3,1.7,3.2,1.7,5.8c0,2.6-0.6,4.6-1.7,5.9c-1.2,1.3-2.7,2-4.5,2
	c-1.8,0-3.3-0.7-4.5-2c-1.2-1.3-1.8-3.3-1.8-5.8C133.2,50.5,133.7,48.6,134.9,47.3L134.9,47.3z M156.6,64.4V49.7l9.1,14.7h4.6V41.8
	h-4.2v15.1l-9.3-15.1h-4.4v22.6L156.6,64.4L156.6,64.4z"/>
</svg>
