<svg t="1660028255048" class="icon" viewBox="0 0 1024 1024" version="1.1" xmlns="http://www.w3.org/2000/svg" p-id="2995" width="200" height="200"><path d="M112 16h736v992H112z" fill="#F48284" p-id="2996"></path><path d="M496 704m-176 0a176 176 0 1 0 352 0 176 176 0 1 0-352 0Z" fill="#FFFFFF" p-id="2997"></path><path d="M896 128h-32V32a32 32 0 0 0-32-32H128a32 32 0 0 0-32 32v960a32 32 0 0 0 32 32h704a32 32 0 0 0 32-32V416h32a32 32 0 0 0 32-32V160a32 32 0 0 0-32-32z m-64 0H448a32 32 0 0 0-32 32v224a32 32 0 0 0 32 32h384v576H128V32h704v96zM496 896c106.032 0 192-85.968 192-192s-85.968-192-192-192-192 85.968-192 192 85.968 192 192 192z m0-352c88.352 0 160 71.648 160 160s-71.648 160-160 160-160-71.648-160-160 71.648-160 160-160z m-46.832 213.824l0.224 0.608c0.32 0.736 0.368 1.536 0.816 2.24 0.64 1.04 1.616 1.76 2.448 2.608l0.064 0.048a15.6 15.6 0 0 0 4.816 3.248l0.448 0.208c1.872 0.752 3.824 1.136 5.872 1.184L464 768l0.064-0.016c2.832 0.032 5.664-0.352 8.288-1.76l79.52-50.24a6.112 6.112 0 0 0 2.288-1.824c2.912-2.464 4.864-6.032 4.864-10.16s-1.952-7.68-4.864-10.16a5.968 5.968 0 0 0-2.288-1.824l-79.52-50.24a16.752 16.752 0 0 0-8.288-1.76L464 640l-0.144 0.032a16.64 16.64 0 0 0-6.32 1.392 15.6 15.6 0 0 0-4.816 3.248l-0.064 0.048c-0.848 0.848-1.808 1.568-2.448 2.608-0.432 0.704-0.496 1.488-0.816 2.24l-0.224 0.608a13.76 13.76 0 0 0-0.896 4.464c-0.032 0.464-0.272 0.88-0.272 1.36v96c0 0.48 0.24 0.896 0.288 1.36a13.664 13.664 0 0 0 0.88 4.464z" fill="#2B3139" p-id="2998"></path><path d="M448 160h448v224H448z" fill="#FFFFFF" p-id="2999"></path><path d="M484.592 213.824h50.048l16.32 67.152h0.336l16.32-67.152h50.032V328h-33.248v-73.232h-0.32l-19.84 73.232h-26.224l-19.824-73.232h-0.32V328h-33.264v-114.176zM690.32 211.104c34.704 0 57.888 24.944 57.888 59.792s-23.184 59.808-57.888 59.808c-34.688 0-57.872-24.96-57.872-59.808s23.184-59.792 57.872-59.792z m0 91.152c8.976 0 22.72-5.904 22.72-31.344 0-25.424-13.744-31.344-22.72-31.344-8.96 0-22.704 5.92-22.704 31.344s13.744 31.344 22.704 31.344zM824.72 328h-39.344l-34.064-114.176h35.504l18.72 69.232h0.32l18.384-69.232h36.144L824.72 328z" fill="#2B3139" p-id="3000"></path></svg>