<svg t="1651252465934" class="icon" viewBox="0 0 1024 1024" version="1.1" xmlns="http://www.w3.org/2000/svg" p-id="3315" width="200" height="200"><path d="M112 16h736v992H112z" fill="#FBBD9B" p-id="3316"></path><path d="M343.552 818.464c-26.16 6.56-43.568 25.088-38.896 41.408 4.656 16.304 29.664 24.208 55.792 17.664 26.16-6.56 43.568-25.088 38.896-41.408-4.672-16.304-29.664-24.208-55.792-17.664z m311.792-46.336c-4.672-16.304-29.664-24.208-55.792-17.664-26.16 6.56-43.584 25.088-38.896 41.408 4.656 16.304 29.664 24.208 55.792 17.664 26.16-6.56 43.568-25.104 38.896-41.408zM656 528l-256 64v64l256-64v-64z" fill="#FEEB9E" p-id="3317"></path><path d="M364.512 892.96c32.096-8.272 53.312-32.56 50.48-55.936 0.528-1.616 1.008-3.248 1.008-5.024V668l224-56v127.92c-12.992-4.256-28.592-4.992-44.512-0.896-34.416 8.88-56.704 36.208-49.792 61.024 6.928 24.832 40.416 37.76 74.832 28.896 32.096-8.272 53.312-32.56 50.464-55.936A15.424 15.424 0 0 0 672 768V528a16 16 0 0 0-16-16 15.856 15.856 0 0 0-6.944 1.728L400 576a16 16 0 0 0-16 16v211.92c-12.992-4.256-28.592-4.992-44.512-0.896-34.416 8.88-56.704 36.208-49.792 61.024 6.912 24.848 40.416 37.776 74.816 28.912z m247.776-94.832c-17.632 4.192-33.824 1.248-36.192-6.56-2.352-7.792 10.016-17.52 27.632-21.68 17.632-4.192 33.824-1.248 36.192 6.544 2.352 7.808-10.032 17.52-27.632 21.696zM416 604l224-56v32l-224 56v-32z m-68.288 229.872c17.632-4.192 33.824-1.248 36.192 6.544 2.352 7.808-10.016 17.536-27.632 21.696-17.632 4.192-33.824 1.248-36.192-6.544-2.352-7.808 10.032-17.52 27.632-21.696zM896 128h-32V32a32 32 0 0 0-32-32H128a32 32 0 0 0-32 32v960a32 32 0 0 0 32 32h704a32 32 0 0 0 32-32V416h32a32 32 0 0 0 32-32V160a32 32 0 0 0-32-32z m-64 0H448a32 32 0 0 0-32 32v224a32 32 0 0 0 32 32h384v576H128V32h704v96z" fill="#2B3139" p-id="3318"></path><path d="M448 160h448v224H448z" fill="#FFFFFF" p-id="3319"></path><path d="M490.336 213.824h50.064l16.32 67.152h0.32l16.32-67.152h50.048V328h-33.248v-73.232h-0.336l-19.84 73.232h-26.224l-19.824-73.232h-0.336V328h-33.264v-114.176zM641.552 213.824h58.848c31.024 0 41.904 22.704 41.904 39.008 0 27.664-18.56 40.608-44.784 40.608h-20.784v34.56h-35.184v-114.176z m35.184 52.464h13.584c9.12 0 18.72-0.64 18.72-12.16 0-10.4-8-11.024-16.64-11.024h-15.664v23.184zM753.696 253.792c0.16-13.104 5.44-22.704 13.92-29.088 8.464-6.256 19.984-9.28 32.448-9.28 32.304 0 43.008 19.184 43.008 28.624 0 23.344-14.704 23.344-14.704 23.824v0.32c0 1.28 18.224 1.28 18.224 26.08 0 13.584-10.24 35.008-46.688 35.008-50.048 0-50.224-35.184-49.424-43.504h30.384c-0.16 5.92 1.28 10.384 4.32 13.28 3.04 3.664 7.68 4.96 13.28 4.96 9.104 0 14.88-3.36 14.88-12.464 0-9.76-7.52-11.52-14.88-11.52-4.64 0-6.88 0.464-9.28 0.8v-21.744c2.4 0.16 4.96 0.64 9.28 0.64 6.72 0 15.184-1.44 15.184-10.08 0-7.024-8-9.744-14.544-9.744-8.64 0-15.664 4.64-15.36 13.904h-30.048z" fill="#2B3139" p-id="3320"></path></svg>