<svg t="1660028168317" class="icon" viewBox="0 0 1024 1024" version="1.1" xmlns="http://www.w3.org/2000/svg" p-id="2539" width="200" height="200"><path d="M112 16h736v992H112z" fill="#AED796" p-id="2540"></path><path d="M464 576v256l-48 32h128l-48-32V576h80l32 32v-64H352v64l32-32h80zM896 128h-32V32a32 32 0 0 0-32-32H128a32 32 0 0 0-32 32v960a32 32 0 0 0 32 32h704a32 32 0 0 0 32-32V416h32a32 32 0 0 0 32-32V160a32 32 0 0 0-32-32z m-64 0H448a32 32 0 0 0-32 32v224a32 32 0 0 0 32 32h384v576H128V32h704v96z" fill="#2B3139" p-id="2541"></path><path d="M448 160h448v224H448z" fill="#FFFFFF" p-id="2542"></path><path d="M560.8 211.104c34.704 0 57.888 24.944 57.888 59.792s-23.184 59.808-57.888 59.808-57.888-24.96-57.888-59.808 23.184-59.792 57.888-59.792z m0 91.152c8.96 0 22.704-5.904 22.704-31.344 0-25.424-13.744-31.344-22.704-31.344s-22.704 5.92-22.704 31.344 13.744 31.344 22.704 31.344zM660.336 243.088h-31.984v-29.264h99.152v29.264H695.52V328h-35.184v-84.912zM744.496 213.824h88.288v29.264H779.68v14.224h45.584v27.184H779.68V328h-35.184v-114.176z" fill="#2B3139" p-id="2543"></path></svg>