<svg t="1660028614998" class="icon" viewBox="0 0 1024 1024" version="1.1" xmlns="http://www.w3.org/2000/svg" p-id="4211" width="200" height="200"><path d="M112 16h736v992H112z" fill="#C5BCDD" p-id="4212"></path><path d="M612.576 795.408a15.872 15.872 0 0 0 22.48 0l79.344-79.344c0.336-0.288 0.752-0.384 1.056-0.704a15.776 15.776 0 0 0 4.592-11.52 15.776 15.776 0 0 0-4.656-11.248c-0.208-0.208-0.48-0.288-0.704-0.464l-79.6-79.6a15.872 15.872 0 1 0-22.464 22.464l68.944 68.944-68.992 68.992a15.888 15.888 0 0 0 0 22.48zM488.992 592c20.4 0 39.008 8.272 39.008 32 0 23.52-34.288 39.84-34.288 39.84C459.216 692.752 464 736 464 736v16h32v-16s-3.168-37.408 24.976-55.616c0 0 39.024-20.176 39.024-56.384 0-19.136-7.152-39.52-21.312-49.264-14.176-9.744-29.456-14.624-50.864-14.624-16.304 0-32.528 3.424-43.712 10.304-17.728 10.736-26.976 27.856-28.112 53.584h32c0-23.12 22.08-32 40.992-32z m-227.44 124.032l79.376 79.376a15.84 15.84 0 0 0 22.464 0 15.84 15.84 0 0 0 0-22.464L294.4 703.952l68.944-68.944a15.872 15.872 0 1 0-22.464-22.464l-79.568 79.568c-0.224 0.208-0.528 0.288-0.736 0.496a15.888 15.888 0 0 0-4.656 11.264 15.76 15.76 0 0 0 4.608 11.504c0.304 0.288 0.704 0.384 1.024 0.656zM896 128h-32V32a32 32 0 0 0-32-32H128a32 32 0 0 0-32 32v960a32 32 0 0 0 32 32h704a32 32 0 0 0 32-32V416h32a32 32 0 0 0 32-32V160a32 32 0 0 0-32-32z m-64 0H448a32 32 0 0 0-32 32v224a32 32 0 0 0 32 32h384v576H128V32h704v96zM464 816h32v-32h-32v32z" fill="#2B3139" p-id="4213"></path><path d="M448 160h448v224H448z" fill="#FFFFFF" p-id="4214"></path><path d="M502.432 213.824h58.848c31.008 0 41.888 22.704 41.888 39.008 0 27.664-18.544 40.608-44.768 40.608h-20.8v34.56h-35.184v-114.176z m35.184 52.464h13.6c9.104 0 18.704-0.64 18.704-12.16 0-10.4-8-11.024-16.624-11.024h-15.664v23.184zM615.056 213.824h35.184v39.664h32.944v-39.664h35.184V328h-35.184v-45.248H650.24V328h-35.184v-114.176zM736.496 213.824h58.848c31.024 0 41.904 22.704 41.904 39.008 0 27.664-18.544 40.608-44.784 40.608H771.68v34.56h-35.184v-114.176z m35.184 52.464h13.6c9.104 0 18.72-0.64 18.72-12.16 0-10.4-8-11.024-16.64-11.024h-15.68v23.184z" fill="#2B3139" p-id="4215"></path></svg>