<svg t="1660027890806" class="icon" viewBox="0 0 1024 1024" version="1.1" xmlns="http://www.w3.org/2000/svg" p-id="1931" width="200" height="200"><path d="M112 16h736v992H112z" fill="#A0DAF7" p-id="1932"></path><path d="M288 640v64h64v-64h-64z m320-128h-64v64h64v-64z m64 128v-64h-64v64h64z m-320 128h-64v64h64v-64z m320 128v-64h-64v64h64z m0-128v-64h-64v64h64z m-192 128h64v-64h-64v64z m-128 0h64v-64h-64v64z m-64-384v64h64v-64h-64z m192 256h64v-64h-64v64z m64-64h64v-64h-64v64z m0 128h64v-64h-64v64z m0-192v-64h-64v64h64z m-64-128h-64v64h64v-64z m-64 192h-64v64h64v-64z m0 64v64h64v-64h-64z m64-128h-64v64h64v-64z m-64-64h-64v64h64v-64zM896 128h-32V32a32 32 0 0 0-32-32H128a32 32 0 0 0-32 32v960a32 32 0 0 0 32 32h704a32 32 0 0 0 32-32V416h32a32 32 0 0 0 32-32V160a32 32 0 0 0-32-32z m-64 0H448a32 32 0 0 0-32 32v224a32 32 0 0 0 32 32h384v576H128V32h704v96z" fill="#2B3139" p-id="1933"></path><path d="M448 160h448v224H448z" fill="#FFFFFF" p-id="1934"></path><path d="M496.512 213.824h58.848c31.008 0 41.888 22.704 41.888 39.008 0 27.664-18.544 40.608-44.784 40.608H531.68v34.56h-35.184v-114.176z m35.168 52.464h13.6c9.12 0 18.72-0.64 18.72-12.16 0-10.4-8-11.024-16.64-11.024h-15.68v23.184zM609.312 213.824h35.968l33.264 61.072h0.336v-61.072h33.248V328h-34.224l-35.008-62.352h-0.336V328h-33.248v-114.176zM814.224 316.336c-7.84 10.08-19.984 14.384-32.464 14.384-33.728 0-54.528-26.224-54.528-58.688 0-43.504 30.56-60.928 56.304-60.928 29.104 0 47.488 15.824 52.608 42.688H802.4c-1.264-8.32-8.32-14.24-16.624-14.24-24.144 0-23.344 25.44-23.344 33.264 0 10.72 4.32 29.424 25.744 29.424 8.16 0 16.464-4.16 18.224-12.624h-15.52v-24.464h46.688V328h-22.224l-1.12-11.664z" fill="#2B3139" p-id="1935"></path></svg>