<svg t="1660028510770" class="icon" viewBox="0 0 1024 1024" version="1.1" xmlns="http://www.w3.org/2000/svg" p-id="3754" width="200" height="200"><path d="M112 16h736v992H112z" fill="#FEEB9E" p-id="3755"></path><path d="M496 704m-176 0a176 176 0 1 0 352 0 176 176 0 1 0-352 0Z" fill="#AED796" p-id="3756"></path><path d="M496 528v160l132.064 132.064A175.136 175.136 0 0 0 672 704c0-97.2-78.8-176-176-176z" fill="#A0DAF7" p-id="3757"></path><path d="M320 701.6c0 43.904 16.672 83.904 43.936 114.464L496 685.808V528c-97.2 0-176 77.712-176 173.6z" fill="#F48284" p-id="3758"></path><path d="M496 896c106.032 0 192-85.968 192-192s-85.968-192-192-192-192 85.968-192 192 85.968 192 192 192z m16-351.184c80.848 8.032 144 76.224 144 159.184a159.072 159.072 0 0 1-29.488 92.336L512 681.824v-137.008z m93.904 275.264C577.232 847.232 538.608 864 496 864s-81.232-16.768-109.904-43.92L496 710.176l109.904 109.904zM480 544.816v137.008l-114.512 114.512A159.072 159.072 0 0 1 336 704c0-82.976 63.152-151.152 144-159.184zM896 128h-32V32a32 32 0 0 0-32-32H128a32 32 0 0 0-32 32v960a32 32 0 0 0 32 32h704a32 32 0 0 0 32-32V416h32a32 32 0 0 0 32-32V160a32 32 0 0 0-32-32z m-64 0H448a32 32 0 0 0-32 32v224a32 32 0 0 0 32 32h384v576H128V32h704v96z" fill="#2B3139" p-id="3759"></path><path d="M448 160h448v224H448z" fill="#FFFFFF" p-id="3760"></path><path d="M509.696 213.824h58.864c31.008 0 41.888 22.704 41.888 39.008 0 27.664-18.544 40.608-44.784 40.608h-20.784v34.56h-35.184v-114.176z m35.2 52.464h13.6c9.104 0 18.704-0.64 18.704-12.16 0-10.4-8-11.024-16.624-11.024h-15.664v23.184zM622.336 213.824h58.848c31.024 0 41.904 22.704 41.904 39.008 0 27.664-18.544 40.608-44.784 40.608h-20.784v34.56h-35.184v-114.176z m35.2 52.464h13.6c9.104 0 18.704-0.64 18.704-12.16 0-10.4-8-11.024-16.624-11.024h-15.664v23.184zM761.68 243.088h-31.984v-29.264h99.152v29.264h-31.984V328h-35.184v-84.912z" fill="#2B3139" p-id="3761"></path></svg>