<svg t="1660027953377" class="icon" viewBox="0 0 1024 1024" version="1.1" xmlns="http://www.w3.org/2000/svg" p-id="2082" width="200" height="200"><path d="M112 16h736v992H112z" fill="#A0DAF7" p-id="2083"></path><path d="M480 640l-192 112 192 112 192-112z" fill="#96B3DE" p-id="2084"></path><path d="M480 544l-192 112 192 112 192-112z" fill="#6C8EC9" p-id="2085"></path><path d="M279.936 738.144c-0.304 0.176-0.448 0.448-0.72 0.64-0.896 0.592-1.616 1.344-2.368 2.112-0.752 0.768-1.504 1.504-2.08 2.384-0.192 0.272-0.464 0.432-0.64 0.72-0.336 0.592-0.352 1.248-0.624 1.872-0.416 1.024-0.832 2.016-1.024 3.104-0.208 1.008-0.224 2-0.208 3.008a13.6 13.6 0 0 0 0.208 3.008c0.208 1.088 0.608 2.08 1.024 3.104 0.272 0.624 0.288 1.28 0.624 1.872 0.176 0.304 0.448 0.448 0.64 0.72 0.576 0.896 1.328 1.632 2.08 2.384 0.768 0.768 1.488 1.52 2.368 2.112 0.272 0.192 0.416 0.464 0.72 0.64l190.32 110.864c0.096 0.064 0.208 0.096 0.304 0.176l1.664 0.976c0.32 0.176 0.672 0.176 0.992 0.336 1.312 0.624 2.608 1.12 4.032 1.376 0.944 0.176 1.84 0.192 2.784 0.192s1.84-0.016 2.784-0.192a15.808 15.808 0 0 0 4.032-1.376c0.32-0.16 0.672-0.16 0.992-0.336l1.664-0.976c0.096-0.08 0.208-0.112 0.304-0.176l190.32-110.864c0.304-0.176 0.448-0.448 0.72-0.64 0.896-0.592 1.616-1.344 2.368-2.112 0.752-0.768 1.504-1.504 2.08-2.384 0.192-0.272 0.464-0.416 0.64-0.72 0.336-0.592 0.352-1.248 0.624-1.872 0.416-1.024 0.832-2.016 1.024-3.104 0.208-1.008 0.224-2 0.208-3.008a13.6 13.6 0 0 0-0.208-3.008 16.4 16.4 0 0 0-1.024-3.104c-0.272-0.624-0.288-1.28-0.624-1.872-0.176-0.288-0.448-0.448-0.64-0.72-0.576-0.896-1.328-1.632-2.08-2.384-0.768-0.768-1.488-1.52-2.368-2.112-0.272-0.192-0.416-0.464-0.72-0.64L621.52 704l58.608-34.144c0.304-0.176 0.448-0.448 0.72-0.64 0.896-0.576 1.616-1.344 2.368-2.112 0.752-0.768 1.504-1.504 2.08-2.384 0.192-0.272 0.464-0.416 0.64-0.72 0.336-0.592 0.352-1.248 0.624-1.872 0.416-1.024 0.832-2.016 1.024-3.104 0.208-1.008 0.224-2 0.208-3.008a13.6 13.6 0 0 0-0.208-3.008 16.4 16.4 0 0 0-1.024-3.104c-0.272-0.624-0.288-1.28-0.624-1.872-0.176-0.288-0.448-0.432-0.64-0.72-0.576-0.896-1.328-1.632-2.08-2.384-0.768-0.768-1.488-1.536-2.368-2.112-0.272-0.192-0.416-0.464-0.72-0.64l-190.32-110.864c-0.096-0.064-0.208-0.096-0.304-0.176l-1.664-0.976c-0.32-0.176-0.672-0.176-0.992-0.336a15.808 15.808 0 0 0-4.032-1.376c-0.944-0.176-1.84-0.192-2.784-0.192s-1.84 0.016-2.784 0.192a15.808 15.808 0 0 0-4.032 1.376c-0.32 0.16-0.672 0.16-0.992 0.336l-1.664 0.976c-0.096 0.08-0.208 0.112-0.304 0.176l-190.32 110.864c-0.304 0.176-0.448 0.448-0.72 0.64-0.896 0.576-1.616 1.344-2.368 2.112-0.752 0.768-1.504 1.504-2.08 2.384-0.192 0.288-0.464 0.432-0.64 0.72-0.336 0.592-0.352 1.248-0.624 1.872-0.416 1.024-0.832 2.016-1.024 3.104-0.208 1.008-0.224 2-0.208 3.008a13.6 13.6 0 0 0 0.208 3.008c0.208 1.088 0.608 2.08 1.024 3.104 0.272 0.624 0.288 1.28 0.624 1.872 0.176 0.304 0.448 0.448 0.64 0.72 0.576 0.896 1.328 1.632 2.08 2.384 0.768 0.768 1.488 1.536 2.368 2.112 0.272 0.192 0.416 0.464 0.72 0.64l58.528 34.096c-0.144 0.096-0.288 0.256-0.4 0.336a917245.44 917245.44 0 0 0-58.128 33.856zM319.584 656L480 562.56 640.416 656 480 749.44 319.584 656z m48.32 67.84c0.672-0.368 1.68-0.752 2.784-1.12l99.568 58c0.096 0.064 0.208 0.096 0.304 0.176l1.664 0.976c0.32 0.176 0.672 0.176 0.992 0.336 1.312 0.624 2.608 1.12 4.032 1.376 0.944 0.176 1.84 0.192 2.784 0.192s1.84-0.016 2.784-0.192a15.808 15.808 0 0 0 4.032-1.376c0.32-0.16 0.672-0.16 0.992-0.336l1.664-0.976c0.096-0.08 0.208-0.112 0.304-0.176l99.44-57.92c1.36 0.448 2.672 0.928 3.488 1.392L640.48 752 480 845.44 319.584 752l48.32-28.16zM896 128h-32V32a32 32 0 0 0-32-32H128a32 32 0 0 0-32 32v960a32 32 0 0 0 32 32h704a32 32 0 0 0 32-32V416h32a32 32 0 0 0 32-32V160a32 32 0 0 0-32-32z m-64 0H448a32 32 0 0 0-32 32v224a32 32 0 0 0 32 32h384v576H128V32h704v96z" fill="#2B3139" p-id="2086"></path><path d="M448 160h448v224H448z" fill="#FFFFFF" p-id="2087"></path><path d="M503.872 213.824h58.848c31.024 0 41.888 22.704 41.888 39.008 0 27.664-18.544 40.608-44.768 40.608h-20.8v34.56h-35.184v-114.176z m35.168 52.464h13.6c9.104 0 18.704-0.64 18.704-12.16 0-10.4-8-11.024-16.624-11.024h-15.68v23.184zM644.496 289.632c0 2.88 0.464 5.44 1.28 7.52 2.544 6.88 10.224 8.32 16.784 8.32 5.744 0 14.56-1.92 14.56-10.384 0-5.92-4.976-7.52-24.64-13.12-18.08-5.104-38.704-10.064-38.704-33.088 0-26.384 22.56-37.728 46.064-37.728 24.784 0 46.688 9.424 47.664 37.248H674.24c0.64-4.32-1.28-7.184-4.16-9.104-2.88-2.08-6.88-2.88-10.384-2.88-4.816 0-12.64 1.28-12.64 7.664 0.64 8.16 16.96 9.904 33.104 14.384s32.144 12 32.144 32.944c0 29.744-27.344 39.344-52.768 39.344-12.976 0-49.904-4.64-50.224-41.088h35.184zM723.216 213.824h57.728c38.064 0 51.488 28.144 51.488 56.928 0 35.008-18.528 57.248-58.352 57.248h-50.864v-114.176z m35.184 84.912h13.744c21.904 0 25.104-17.744 25.104-28.464 0-7.184-2.24-27.168-27.664-27.168H758.4v55.632z" fill="#2B3139" p-id="2088"></path></svg>