<svg xmlns="http://www.w3.org/2000/svg"
    t="1660028580068"
    class="icon"
    viewBox="0 0 1024 1024"
    version="1.1"
    p-id="4060"
    width="200"
    height="200">
    <path
        d="M656 240V16H144v992h736V240z"
        fill="#FEEB9E"
        p-id="4061">
    </path>
    <path
        d="M304 432h416v288H304z"
        fill="#FFFFFF"
        p-id="4062">
    </path>
    <path
        d="M656 16v224h224z"
        fill="#E6C45F"
        p-id="4063">
    </path>
    <path
        d="M895.904 239.824a15.536 15.536 0 0 0-4.464-10.48L666.656 4.56a15.376 15.376 0 0 0-10.336-4.432L656 0H160a32 32 0 0 0-32 32v960a32 32 0 0 0 32 32h704a32 32 0 0 0 32-32V240.432 240l-0.096-0.176zM672 54.096L841.904 224H672V54.096zM864 992H160V32h480v224h224v736zM288 448v288h448V416H288v32z m160 0h256v64H448v-64z m0 96h256v64H448v-64z m0 96h256v64H448v-64z m-128-192h96v64h-96v-64z m0 96h96v64h-96v-64z m0 96h96v64h-96v-64z"
        fill="#2B3139"
        p-id="4064">
    </path>
</svg>