<svg t="1660028485514" class="icon" viewBox="0 0 1024 1024" version="1.1" xmlns="http://www.w3.org/2000/svg" p-id="3602" width="200" height="200"><path d="M112 16h736v992H112z" fill="#AED796" p-id="3603"></path><path d="M400 624h-96v160h96l144 80V544z" fill="#E6F6FD" p-id="3604"></path><path d="M614.496 738.784a15.744 15.744 0 0 0-4.576 20.4l0.672 1.2c4.272 7.6 13.904 9.968 20.88 4.992 27.952-20 41.536-41.68 40.4-64.592-1.376-27.952-24.32-47.84-40.272-58.368a14.4 14.4 0 0 0-21.28 6.528l-0.608 1.376a15.552 15.552 0 0 0 5.408 19.104c11.344 7.568 25.472 19.952 26.08 33.024 0.512 10.832-8.864 23.488-26.704 36.336zM896 128h-32V32a32 32 0 0 0-32-32H128a32 32 0 0 0-32 32v960a32 32 0 0 0 32 32h704a32 32 0 0 0 32-32V416h32a32 32 0 0 0 32-32V160a32 32 0 0 0-32-32z m-64 0H448a32 32 0 0 0-32 32v224a32 32 0 0 0 32 32h384v576H128V32h704v96zM304 800h92.24l140 78.128c0.384 0.224 0.816 0.224 1.2 0.384 0.368 0.176 0.784 0.256 1.168 0.384a15.84 15.84 0 0 0 19.52-6.624 15.456 15.456 0 0 0 1.872-8.256V545.296a15.632 15.632 0 0 0-1.776-9.584c-4-6.88-12.32-9.376-19.568-6.64-0.4 0.144-0.832 0.24-1.232 0.4-0.368 0.192-0.784 0.176-1.152 0.384L396.064 608H304a16 16 0 0 0-16 16v160a16 16 0 0 0 16 16z m112-166.512l112-62.4v265.888l-112-62.48v-141.008zM320 640h64v128h-64v-128z" fill="#2B3139" p-id="3605"></path><path d="M448 160h448v224H448z" fill="#FFFFFF" p-id="3606"></path><path d="M609.968 330.672h-34.224l-12.32-69.568h-0.336l-11.984 69.568h-34.384l-31.008-114.176h34.528l13.92 70.512h0.32l13.744-70.512h31.024l13.424 71.472h0.336l14.24-71.472h34.704l-31.984 114.176zM672.896 216.496h34.368l41.584 114.176h-36.448l-4.8-16.32h-36.304l-5.12 16.32h-35.344l42.064-114.176z m27.664 73.392l-10.24-35.168h-0.336l-11.024 35.168h21.6zM813.52 330.672h-39.344l-34.064-114.176h35.504l18.72 69.232h0.32l18.384-69.232h36.144l-35.664 114.176z" fill="#2B3139" p-id="3607"></path></svg>