<svg t="1660028081964" class="icon" viewBox="0 0 1024 1024" version="1.1" xmlns="http://www.w3.org/2000/svg" p-id="2235" width="200" height="200"><path d="M112 16h736v992H112z" fill="#FEEB9E" p-id="2236"></path><path d="M256 880h64V720h-64v160z m256-224v224h64V656h-64z" fill="#A0DAF7" p-id="2237"></path><path d="M384 880h64V528h-64v352z m256-160v160h64V720h-64z" fill="#F48284" p-id="2238"></path><path d="M272 896h32a32 32 0 0 0 32-32v-128a32 32 0 0 0-32-32h-32a32 32 0 0 0-32 32v128a32 32 0 0 0 32 32z m0-160h32v128h-32v-128z m128 160h32a32 32 0 0 0 32-32V544a32 32 0 0 0-32-32h-32a32 32 0 0 0-32 32v320a32 32 0 0 0 32 32z m0-352h32v320h-32V544z m256 352h32a32 32 0 0 0 32-32v-128a32 32 0 0 0-32-32h-32a32 32 0 0 0-32 32v128a32 32 0 0 0 32 32z m0-160h32v128h-32v-128z m-128 160h32a32 32 0 0 0 32-32V672a32 32 0 0 0-32-32h-32a32 32 0 0 0-32 32v192a32 32 0 0 0 32 32z m0-224h32v192h-32V672zM896 128h-32V32a32 32 0 0 0-32-32H128a32 32 0 0 0-32 32v960a32 32 0 0 0 32 32h704a32 32 0 0 0 32-32V416h32a32 32 0 0 0 32-32V160a32 32 0 0 0-32-32z m-64 0H448a32 32 0 0 0-32 32v224a32 32 0 0 0 32 32h384v576H128V32h704v96z" fill="#2B3139" p-id="2239"></path><path d="M448 160h448v224H448z" fill="#FFFFFF" p-id="2240"></path><path d="M542.976 267.232l-37.584-53.408h41.264l17.264 31.008 16.96-31.008h39.008l-36.624 53.712 40.784 60.448h-42.368l-19.52-34.064-20.144 34.08h-40.304l41.264-60.768zM631.312 213.824h35.168v84.912h50.528V328h-85.696v-114.176zM760.096 289.632c0 2.88 0.48 5.44 1.28 7.52 2.544 6.88 10.24 8.32 16.784 8.32 5.76 0 14.56-1.92 14.56-10.384 0-5.92-4.976-7.52-24.624-13.12-18.08-5.104-38.704-10.064-38.704-33.088 0-26.384 22.544-37.728 46.048-37.728 24.8 0 46.704 9.424 47.664 37.248h-33.264a8.704 8.704 0 0 0-4.16-9.104c-2.88-2.08-6.88-2.88-10.384-2.88-4.8 0-12.624 1.28-12.624 7.664 0.64 8.16 16.944 9.904 33.088 14.384s32.144 12 32.144 32.944c0 29.744-27.344 39.344-52.768 39.344-12.96 0-49.888-4.64-50.224-41.088h35.184z" fill="#2B3139" p-id="2241"></path></svg>