<svg t="1651252205264" class="icon" viewBox="0 0 1024 1024" version="1.1" xmlns="http://www.w3.org/2000/svg" p-id="2318" width="200" height="200"><path d="M656 240V16H144v992h736V240z" fill="#C5BCDD" p-id="2319"></path><path d="M656 16v224h224z" fill="#9D90C5" p-id="2320"></path><path d="M895.904 239.824a15.616 15.616 0 0 0-4.464-10.496L666.656 4.56a15.376 15.376 0 0 0-10.336-4.432L656 0H160a32 32 0 0 0-32 32v960a32 32 0 0 0 32 32h704a32 32 0 0 0 32-32V240.432 240l-0.096-0.176zM672 54.096L841.904 224H672V54.096zM864 992H528V608h16a32 32 0 0 0 32-32v-128a32 32 0 0 0-32-32v-32h-32v32h-32a32 32 0 0 0-32 32v128a32 32 0 0 0 32 32h16v384H160V32h320v32h32V32h128v224h224v736zM544 512v64h-64v-64h64z m-64-32v-32h64v32h-64z m64-384V64h-32v32h32z m-64 32h32V96h-32v32z m64 32V128h-32v32h32z m-64 32h32v-32h-32v32z m64 32v-32h-32v32h32z m-64 32h32v-32h-32v32z m64 32v-32h-32v32h32z m-64 32h32v-32h-32v32z m64 32v-32h-32v32h32z m-64 0v32h32v-32h-32z" fill="#2B3139" p-id="2321"></path></svg>