<svg xmlns="http://www.w3.org/2000/svg" xmlns:xlink="http://www.w3.org/1999/xlink" version="1.1" id="图层_1" x="0px" y="0px" viewBox="0 0 64 64" style="enable-background:new 0 0 64 64;" xml:space="preserve">
<style type="text/css">
	.st0{fill:#6CADFF;}
	.st1{fill:#20D14F;}
	.st2{fill:#FF7077;}
	.st3{fill:#FFCC1E;}
</style>
<path class="st0" d="M30.7,44.1c0,6.1-4.9,11-11,11c-6.1,0-11-4.9-11-11c0-6.1,4.9-11,11-11c0,0,0,0,0,0h11V44.1z"/>
<path class="st1" d="M33.1,44.1c0,6.1,4.9,11,11,11c6.1,0,11-4.9,11-11s-4.9-11-11-11c0,0,0,0,0,0h-11L33.1,44.1L33.1,44.1z"/>
<path class="st2" d="M30.7,19.7c0-6.1-4.9-11-11-11s-11,4.9-11,11c0,6.1,4.9,11,11,11c0,0,0,0,0,0h11V19.7L30.7,19.7z"/>
<path class="st3" d="M33.1,19.7c0-6.1,4.9-11,11-11s11,4.9,11,11s-4.9,11-11,11c0,0,0,0,0,0h-11L33.1,19.7L33.1,19.7z"/>
<script xmlns=""/></svg>